<?xml version="1.0" standalone="no"?>
<!DOCTYPE svg PUBLIC "-//W3C//DTD SVG 20010904//EN"
 "http://www.w3.org/TR/2001/REC-SVG-20010904/DTD/svg10.dtd">
<svg version="1.0" xmlns="http://www.w3.org/2000/svg"
 width="500.000000pt" height="500.000000pt" viewBox="0 0 500.000000 500.000000"
 preserveAspectRatio="xMidYMid meet">
<metadata>
Created by potrace 1.11, written by Peter Selinger 2001-2013
</metadata>
<g transform="translate(0.000000,500.000000) scale(0.100000,-0.100000)"
fill="#000000" stroke="none">
<path d="M0 3923 c0 -909 2 -1074 14 -1058 8 11 19 16 30 12 24 -9 20 -35 -6
-40 -23 -4 -23 -4 2 -15 24 -10 24 -11 3 -11 -12 -1 -27 7 -32 17 -7 12 -10
-180 -11 -612 0 -532 2 -627 14 -611 18 25 46 13 46 -20 0 -33 -28 -45 -46
-20 -12 16 -14 0 -14 -115 0 -104 3 -131 12 -122 15 15 48 16 48 2 0 -5 22
-10 49 -10 44 0 49 -3 55 -25 4 -14 14 -25 24 -26 14 0 14 -2 -3 -10 -18 -8
-18 -8 5 -6 20 2 26 8 28 35 2 22 8 32 20 32 15 0 15 2 2 10 -13 9 -13 10 1
10 8 0 21 -6 28 -13 11 -9 14 -9 18 1 6 15 50 16 55 1 3 -8 10 -8 26 2 19 12
24 11 39 -4 16 -16 16 -17 -5 -17 -15 0 -22 -6 -22 -20 0 -15 7 -20 24 -20 21
0 25 5 29 38 l4 37 1 -37 c2 -40 22 -54 22 -15 0 12 4 28 9 35 7 11 10 10 15
-3 3 -9 6 -25 6 -36 0 -10 5 -19 10 -19 6 0 10 5 10 12 0 9 3 9 12 0 27 -27
66 -3 52 32 -3 8 -2 16 3 19 5 3 10 -6 11 -20 3 -34 10 -43 33 -43 14 0 19 7
19 25 0 14 5 25 10 25 6 0 10 -11 10 -25 0 -14 4 -25 9 -25 4 0 8 10 7 22 0
11 5 23 13 26 8 2 11 1 9 -4 -3 -5 -2 -18 3 -29 7 -17 8 -17 8 8 1 33 28 37
33 5 2 -16 10 -24 28 -25 14 -1 18 0 8 3 -26 8 -23 44 2 44 11 0 23 7 26 15 4
8 10 15 16 15 5 0 7 -4 3 -9 -3 -5 0 -13 6 -17 7 -4 9 -3 5 4 -3 6 -2 13 3 16
5 4 12 -7 16 -24 4 -16 16 -36 27 -44 19 -13 19 -14 1 -19 -12 -4 -9 -5 7 -4
20 2 26 8 28 35 4 37 29 44 34 10 2 -16 10 -24 28 -25 14 -1 18 0 8 3 -16 5
-24 30 -19 58 1 4 -4 15 -10 23 -9 10 -14 11 -19 2 -12 -18 -30 -1 -30 27 0
21 -3 24 -21 19 -15 -5 -19 -4 -15 4 12 19 46 13 46 -9 0 -23 4 -24 31 -9 11
5 17 14 14 20 -4 5 9 9 29 9 29 0 34 3 29 16 -4 12 -2 15 8 12 8 -3 13 -14 11
-25 -2 -15 4 -22 23 -25 14 -3 25 -1 25 3 0 5 -5 9 -11 9 -6 0 -3 7 6 17 14
13 18 14 25 3 5 -8 6 -18 4 -22 -3 -4 0 -8 5 -8 6 0 10 10 8 22 -1 15 4 23 18
26 16 3 18 1 7 -9 -18 -19 -15 -35 8 -36 16 -1 18 2 12 14 -5 8 -7 26 -4 39 4
21 6 22 19 8 11 -11 12 -18 4 -28 -8 -10 -6 -18 8 -34 10 -12 20 -19 23 -16 3
3 8 -2 11 -11 5 -10 0 -15 -14 -15 -16 0 -19 -4 -14 -17 4 -10 10 -30 13 -45
5 -33 19 -38 18 -7 -1 33 22 34 27 2 4 -27 4 -27 6 5 1 28 -2 32 -24 32 -31 0
-33 20 -2 21 12 1 25 1 30 0 11 -2 8 14 -5 28 -11 10 -7 11 16 5 28 -7 28 -6
10 14 -10 12 -21 18 -24 14 -3 -4 -17 -9 -31 -10 -23 -1 -26 2 -21 23 2 14 8
25 13 25 5 0 8 -6 6 -13 -1 -8 10 -12 33 -12 22 0 34 -5 33 -13 -2 -7 2 -12 8
-12 6 0 8 7 5 16 -4 10 -2 13 6 8 7 -5 8 -3 3 6 -6 9 -4 11 5 5 9 -5 11 -4 6
4 -6 9 -11 9 -21 1 -15 -12 -40 12 -32 32 3 8 6 5 6 -6 1 -14 4 -16 14 -7 8 6
17 8 20 4 4 -3 7 -1 7 5 0 8 21 12 61 12 33 0 58 -4 55 -9 -3 -5 1 -14 8 -20
12 -10 13 -9 9 7 -4 16 1 19 21 19 14 1 26 -3 26 -8 0 -4 14 -3 30 2 32 12 38
24 18 32 -8 3 -6 6 5 6 9 1 17 -6 17 -14 0 -8 5 -15 10 -15 6 0 10 -7 10 -16
0 -8 -4 -13 -9 -9 -5 3 -12 1 -16 -5 -3 -5 -1 -10 4 -10 6 0 11 -10 12 -22 1
-22 1 -22 9 2 4 14 8 20 9 14 1 -7 10 -14 22 -17 12 -3 18 -10 14 -16 -4 -7 4
-11 19 -11 24 0 26 4 26 43 0 23 4 49 9 56 10 15 15 4 23 -54 2 -11 12 -21 23
-23 16 -3 18 -1 8 9 -17 17 -17 59 0 59 21 0 35 -14 38 -40 3 -18 11 -25 29
-27 14 -1 18 0 8 3 -19 6 -26 64 -8 64 6 0 10 8 10 18 0 11 5 8 15 -12 8 -15
15 -39 15 -52 0 -18 5 -24 23 -23 12 0 16 3 10 6 -18 7 -16 50 3 57 28 11 35
7 25 -12 -14 -26 5 -52 37 -51 24 2 25 2 4 6 -25 5 -40 29 -26 43 5 4 19 11
32 15 20 6 22 3 22 -30 0 -20 4 -34 9 -31 5 3 7 15 4 25 -3 10 0 22 6 25 6 4
11 4 12 -1 2 -24 8 -46 14 -51 4 -4 6 10 3 31 l-4 37 41 0 c49 0 62 -8 66 -40
3 -16 11 -26 24 -27 11 -2 14 0 8 3 -19 8 -17 64 2 64 10 0 15 -11 15 -35 0
-44 20 -47 21 -2 0 26 2 28 8 12 l8 -20 5 20 c4 14 6 10 7 -12 0 -18 6 -33 12
-33 7 0 10 14 7 35 -4 31 -2 34 17 29 32 -10 42 -24 17 -24 -15 0 -22 -6 -22
-20 0 -15 7 -20 28 -20 26 0 28 3 24 33 -2 24 2 35 17 45 24 14 29 1 7 -17 -8
-7 -13 -20 -11 -29 2 -9 4 -20 4 -24 1 -5 9 -8 19 -9 14 0 14 -2 -3 -9 -18 -8
-17 -9 8 -9 26 -1 27 1 27 44 0 25 5 45 11 45 6 0 8 -9 4 -20 -8 -26 11 -50
39 -49 19 0 19 1 -4 12 l-25 11 28 4 c29 4 33 12 15 30 -9 9 -7 12 11 12 18 0
21 -4 16 -20 -7 -21 23 -82 37 -74 4 3 1 16 -8 29 -9 14 -13 33 -9 45 l6 20
1245 0 1244 0 0 1760 0 1760 -2500 0 -2500 0 0 -1077z m340 896 c0 -47 -2 -50
-22 -47 -32 4 -39 57 -9 65 12 3 21 12 21 19 0 8 2 14 5 14 3 0 5 -23 5 -51z
m540 7 c0 -26 5 -46 13 -49 7 -3 5 -6 -5 -6 -15 -1 -18 7 -18 43 0 26 -5 46
-12 49 -8 3 -6 6 5 6 14 1 17 -7 17 -43z m350 0 c0 -26 5 -46 13 -49 7 -3 5
-6 -5 -6 -15 -1 -18 7 -18 43 0 26 -5 46 -12 49 -8 3 -6 6 5 6 14 1 17 -7 17
-43z m770 0 c0 -26 5 -46 13 -49 7 -3 5 -6 -5 -6 -15 -1 -18 7 -18 43 0 26 -5
46 -12 49 -8 3 -6 6 5 6 14 1 17 -7 17 -43z m-978 12 c-15 -15 -16 -55 -2 -63
6 -3 10 -11 10 -17 0 -7 -6 -6 -15 2 -8 7 -15 23 -15 37 0 28 19 68 28 59 3
-4 0 -12 -6 -18z m78 -1 c12 -4 11 -6 -2 -6 -11 -1 -18 -9 -18 -21 0 -10 8
-24 18 -30 16 -10 15 -10 -3 -8 -13 2 -22 13 -26 33 -6 33 0 62 10 47 3 -5 13
-12 21 -15z m770 0 c12 -4 12 -6 -2 -6 -20 -1 -17 -39 4 -53 9 -6 7 -8 -7 -6
-13 2 -22 14 -26 33 -6 33 0 62 10 47 3 -5 13 -12 21 -15z m420 0 c12 -4 11
-6 -2 -6 -11 -1 -18 -9 -18 -21 0 -10 8 -24 18 -30 16 -10 15 -10 -3 -8 -13 2
-22 13 -26 33 -6 33 0 62 10 47 3 -5 13 -12 21 -15z m350 0 c12 -4 11 -6 -2
-6 -21 -1 -19 -37 3 -52 11 -8 10 -9 -6 -7 -13 2 -22 14 -26 33 -6 33 0 62 10
47 3 -5 13 -12 21 -15z m280 -32 c0 -18 -7 -38 -15 -45 -9 -8 -15 -9 -15 -2 0
6 5 14 10 17 6 3 10 17 10 30 0 13 -4 27 -10 30 -5 3 -10 11 -10 17 0 7 6 6
15 -2 8 -7 15 -27 15 -45z m-2802 28 c-12 -3 -18 -14 -18 -34 0 -16 -4 -29 -9
-29 -9 0 -12 49 -4 63 2 4 14 6 26 6 17 -1 18 -2 5 -6z m80 -31 c3 -30 1 -33
-19 -30 -30 4 -37 28 -10 35 26 7 27 20 4 27 -14 4 -14 4 2 3 15 -2 21 -11 23
-35z m69 -2 c1 -33 1 -33 -5 -6 -10 42 -30 44 -35 4 -4 -33 -4 -33 -5 5 -2 34
0 38 21 35 18 -2 22 -10 24 -38z m138 5 c0 -23 -4 -30 -20 -30 -21 0 -31 25
-21 51 11 28 41 12 41 -21z m76 23 c1 -7 3 -23 4 -35 1 -13 -2 -23 -8 -23 -5
0 -7 9 -4 19 2 10 1 25 -4 32 -7 11 -9 9 -10 -6 l0 -20 -9 20 c-7 17 -9 14 -9
-13 -1 -18 -5 -31 -9 -28 -5 3 -8 15 -6 28 1 13 3 26 3 31 2 12 51 8 52 -5z
m115 5 c-19 -5 -18 -6 4 -23 13 -9 20 -22 16 -29 -8 -13 -46 -15 -46 -2 0 5
10 7 23 4 l22 -5 -24 20 c-25 20 -21 43 7 41 14 -1 13 -2 -2 -6z m92 -31 c3
-30 1 -33 -19 -30 -31 4 -36 28 -9 35 22 6 22 7 4 20 -19 14 -18 15 1 11 14
-2 21 -12 23 -36z m76 12 c4 -16 2 -31 -5 -38 -9 -8 -11 -7 -7 4 3 8 2 24 -3
35 l-8 20 -1 -20 -1 -20 -9 20 c-7 17 -9 14 -9 -13 -1 -18 -5 -31 -9 -28 -5 3
-8 15 -6 28 1 13 3 26 3 31 1 4 12 7 25 7 17 0 26 -7 30 -26z m65 9 c11 -21
-3 -53 -24 -53 -7 0 -16 -6 -18 -12 -3 -7 -6 8 -6 35 -1 40 2 47 19 47 10 0
23 -8 29 -17z m139 -5 c2 -11 -5 -18 -20 -20 l-23 -5 25 -11 25 -12 -25 3
c-26 2 -37 25 -26 53 8 20 40 14 44 -8z m192 -7 c0 -16 6 -32 13 -34 7 -3 5
-6 -5 -6 -13 -1 -18 7 -18 28 0 16 -6 32 -12 34 -8 3 -6 6 5 6 12 1 17 -7 17
-28z m158 7 c2 -11 -5 -18 -20 -20 l-23 -5 25 -11 25 -12 -25 3 c-26 2 -37 25
-26 53 8 20 40 14 44 -8z m53 15 l-25 -5 23 -18 c14 -9 21 -22 17 -29 -9 -13
-46 -15 -46 -1 0 5 7 7 15 4 20 -8 19 6 -2 21 -20 15 -9 35 20 34 20 -2 20 -2
-2 -6z m225 -33 l2 -35 -5 33 c-2 18 -10 32 -18 32 -8 0 -15 -14 -18 -32 -4
-32 -4 -32 -5 5 -2 34 0 38 21 35 18 -2 22 -10 23 -38z m51 -17 c7 -3 13 9 16
29 4 33 4 33 5 -5 2 -34 0 -38 -20 -35 -19 2 -23 10 -25 38 -1 33 -1 33 5 6 4
-16 12 -31 19 -33z m97 31 c4 -15 2 -32 -3 -37 -8 -8 -11 -1 -12 24 -1 22 -3
27 -7 14 l-5 -20 -8 20 c-6 16 -8 13 -9 -15 -1 -28 -3 -31 -9 -15 -12 31 -1
55 24 55 16 0 25 -8 29 -26z m186 -3 c0 -16 6 -32 13 -34 7 -3 5 -6 -5 -6 -13
-1 -18 7 -18 28 0 16 -6 32 -12 34 -8 3 -6 6 5 6 12 1 17 -7 17 -28z m158 7
c2 -11 -5 -18 -20 -20 l-23 -5 25 -11 25 -12 -25 3 c-26 2 -37 25 -26 53 8 20
40 14 44 -8z m53 15 l-25 -5 23 -18 c14 -9 21 -22 17 -29 -8 -13 -46 -15 -46
-2 0 5 10 7 23 4 l22 -5 -24 20 c-27 22 -21 43 12 41 20 -2 20 -2 -2 -6z m224
-28 c0 -23 -4 -30 -20 -30 -21 0 -31 25 -21 51 11 28 41 12 41 -21z m133 28
c-12 -3 -18 -14 -18 -34 0 -18 -4 -28 -10 -24 -11 7 -14 48 -3 58 3 4 16 6 27
6 17 -1 18 -2 4 -6z m82 -12 c9 -17 6 -20 -18 -23 l-27 -4 25 -11 c24 -11 24
-12 3 -12 -28 -1 -45 27 -32 51 13 24 36 23 49 -1z m117 -38 c7 -3 13 9 16 29
4 33 4 33 5 -5 2 -34 0 -38 -20 -35 -19 2 -23 10 -25 38 -1 33 -1 33 5 6 4
-16 12 -31 19 -33z m81 50 c-12 -3 -18 -15 -19 -36 0 -31 -1 -31 -10 -8 -13
33 -5 51 23 50 17 -1 18 -2 6 -6z m79 -33 c1 -33 1 -33 -5 -6 -10 42 -30 44
-35 4 -4 -33 -4 -33 -5 5 -2 34 0 38 21 35 18 -2 22 -10 24 -38z m-1409 -32
c-2 -6 -10 -14 -16 -16 -7 -2 -10 2 -6 12 7 18 28 22 22 4z m360 -15 c-10 -2
-28 -2 -40 0 -13 2 -5 4 17 4 22 1 32 -1 23 -4z m420 0 c-10 -2 -28 -2 -40 0
-13 2 -5 4 17 4 22 1 32 -1 23 -4z m210 0 c-10 -2 -28 -2 -40 0 -13 2 -5 4 17
4 22 1 32 -1 23 -4z m-1974 -318 c-19 -14 -19 -14 1 -15 18 -1 19 -2 2 -9 -10
-4 -18 -10 -18 -14 1 -4 0 -17 0 -29 -1 -15 -4 -10 -8 12 -8 41 3 70 26 70 14
0 14 -2 -3 -15z m136 -29 c0 -26 5 -46 13 -49 7 -3 5 -6 -5 -6 -15 -1 -18 7
-18 43 0 26 -5 46 -12 49 -8 3 -6 6 5 6 14 1 17 -7 17 -43z m-208 12 c-15 -15
-16 -55 -2 -63 6 -3 10 -12 10 -18 -1 -24 -30 28 -30 53 0 25 19 55 29 45 2
-3 -1 -11 -7 -17z m-339 -5 c-7 -2 -21 -2 -30 0 -10 3 -5 5 12 5 17 0 24 -2
18 -5z m477 -22 c0 -16 6 -32 13 -34 7 -3 5 -6 -5 -6 -13 -1 -18 7 -18 28 0
16 -6 32 -12 34 -8 3 -6 6 5 6 12 1 17 -7 17 -28z m158 7 c2 -11 -5 -18 -20
-20 l-23 -5 25 -11 25 -12 -25 3 c-26 2 -37 25 -26 53 8 20 40 14 44 -8z m69
-18 c1 -33 1 -33 -5 -6 -10 42 -30 44 -35 4 -4 -33 -4 -33 -5 5 -2 34 0 38 21
35 18 -2 22 -10 24 -38z m71 2 c3 -30 1 -33 -19 -30 -30 4 -37 28 -10 35 26 7
27 20 4 27 -14 4 -14 4 2 3 15 -2 21 -11 23 -35z m77 1 c0 -18 -3 -33 -7 -33
-4 0 -9 15 -9 33 -1 22 -3 26 -7 12 l-5 -20 -8 20 c-6 16 -8 13 -8 -14 -1 -37
-14 -35 -17 2 -2 32 4 39 34 35 22 -3 26 -8 27 -35z m63 14 c2 -12 -3 -17 -17
-17 -28 0 -27 -17 2 -23 19 -5 19 -5 -3 -4 -26 2 -37 25 -26 53 8 20 40 14 44
-9z m60 16 c-22 -6 -23 -12 -1 -28 9 -7 13 -17 9 -23 -8 -14 -46 -16 -46 -3 0
5 10 7 23 4 l22 -5 -24 20 c-27 22 -21 43 12 41 17 -1 18 -2 5 -6z m-758 -18
c0 -8 -7 -15 -15 -15 -13 0 -14 3 -3 15 16 18 18 18 18 0z m828 -47 c-2 -6
-10 -14 -16 -16 -7 -2 -10 2 -6 12 7 18 28 22 22 4z m-428 -82 c0 -26 5 -46
13 -49 7 -3 5 -6 -5 -6 -14 -1 -18 7 -19 32 -1 17 -1 36 0 41 1 5 -4 13 -11
17 -10 7 -9 9 5 9 14 0 17 -9 17 -44z m-130 11 c12 -4 11 -6 -2 -6 -21 -1 -19
-37 3 -52 11 -8 10 -9 -6 -7 -13 2 -22 14 -26 33 -6 33 0 62 10 47 3 -5 13
-12 21 -15z m-72 -4 c-22 -6 -23 -12 -1 -28 9 -7 13 -17 9 -23 -8 -14 -46 -16
-46 -3 0 5 10 7 23 4 l22 -5 -24 20 c-27 22 -21 43 12 41 17 -1 18 -2 5 -6z
m140 -17 c6 16 11 23 11 16 2 -29 -28 -82 -46 -81 -17 1 -17 2 0 6 19 5 19 10
2 70 -3 10 1 5 8 -11 l14 -29 11 29z m150 2 c2 -11 -5 -18 -20 -20 l-23 -5 25
-11 c24 -10 24 -11 3 -11 -28 -1 -45 27 -31 52 11 22 41 19 46 -5z m60 -50
c-2 -6 -10 -14 -16 -16 -7 -2 -10 2 -6 12 7 18 28 22 22 4z m202 -82 c0 -26 5
-46 13 -49 7 -3 5 -6 -5 -6 -15 -1 -18 7 -18 43 0 26 -5 46 -12 49 -8 3 -6 6
5 6 14 1 17 -7 17 -43z m281 11 c14 -4 19 -13 18 -39 l-1 -33 -7 29 c-9 42
-29 44 -34 4 -2 -20 -4 -11 -4 22 0 30 1 48 4 39 2 -10 13 -19 24 -22z m-485
-5 c-19 -4 -15 -40 5 -53 11 -8 10 -9 -6 -7 -13 2 -22 14 -26 33 -8 44 -2 57
22 42 16 -10 17 -13 5 -15z m354 5 c12 -4 11 -6 -2 -6 -11 -1 -18 -9 -18 -21
0 -10 8 -24 18 -30 16 -10 15 -10 -3 -8 -13 2 -22 13 -26 33 -6 33 0 62 10 47
3 -5 13 -12 21 -15z m-692 -35 c3 -29 1 -32 -22 -32 -32 0 -36 29 -5 37 21 6
21 7 3 20 -19 14 -18 15 1 11 14 -2 21 -12 23 -36z m73 31 c0 -5 3 -20 5 -35
3 -16 0 -28 -6 -28 -5 0 -11 15 -11 33 -1 22 -3 26 -7 12 l-5 -20 -8 20 c-6
16 -8 14 -8 -13 -1 -18 -5 -31 -9 -28 -7 4 -9 49 -3 64 3 6 51 1 52 -5z m64
-28 c0 -23 -4 -30 -20 -30 -21 0 -31 25 -21 51 11 28 41 12 41 -21z m52 -22
c7 -3 13 9 16 29 4 33 4 33 5 -5 2 -34 0 -38 -20 -35 -19 2 -23 10 -25 38 -1
33 -1 33 5 6 4 -16 12 -31 19 -33z m90 17 c1 -33 1 -33 -5 -6 -10 42 -30 44
-35 4 -4 -33 -4 -33 -5 5 -2 34 0 38 21 35 18 -2 22 -10 24 -38z m211 -2 c-3
-38 -6 -43 -28 -45 -21 -2 -22 -1 -6 5 18 8 18 9 3 15 -17 6 -24 47 -10 60 3
4 15 7 25 7 16 0 19 -6 16 -42z m122 13 c0 -16 6 -32 13 -34 7 -3 5 -6 -5 -6
-13 -1 -18 7 -18 28 0 16 -6 32 -12 34 -8 3 -6 6 5 6 12 1 17 -7 17 -28z m143
19 c-13 -5 -23 -16 -23 -25 0 -9 10 -20 23 -25 22 -10 22 -10 -3 -7 -42 4 -40
68 2 66 l23 0 -22 -9z m145 -62 c-2 -6 -10 -14 -16 -16 -7 -2 -10 2 -6 12 7
18 28 22 22 4z m-480 -15 c-10 -2 -28 -2 -40 0 -13 2 -5 4 17 4 22 1 32 -1 23
-4z m-368 -67 c0 -24 5 -47 10 -49 6 -3 5 -4 -2 -3 -7 1 -14 20 -16 42 -2 21
-9 42 -15 46 -8 5 -6 8 6 8 14 0 17 -9 17 -44z m281 11 c14 -4 19 -13 18 -39
l-1 -33 -7 29 c-9 42 -29 44 -34 4 -2 -20 -4 -11 -4 22 0 30 1 48 4 39 2 -10
13 -19 24 -22z m-131 0 c12 -4 11 -6 -2 -6 -23 -1 -23 -25 -1 -46 16 -16 15
-17 -3 -13 -12 2 -21 14 -25 33 -6 33 0 62 10 47 3 -5 13 -12 21 -15z m335 13
c-3 -5 2 -10 12 -11 14 0 15 -2 3 -7 -22 -10 -24 -34 -3 -50 17 -13 17 -14 -2
-10 -29 5 -42 88 -13 88 5 0 6 -4 3 -10z m155 -45 c0 -18 -7 -38 -15 -45 -9
-8 -15 -9 -15 -2 0 6 5 14 10 17 6 3 10 17 10 30 0 13 -4 27 -10 30 -5 3 -10
11 -10 17 0 7 6 6 15 -2 8 -7 15 -27 15 -45z m-692 -7 c-3 -38 -6 -43 -28 -45
l-25 -2 25 8 c25 7 25 7 3 13 -16 4 -23 14 -23 30 0 30 7 38 32 38 16 0 19 -6
16 -42z m122 13 c0 -16 6 -32 13 -34 7 -3 5 -6 -5 -6 -13 -1 -18 7 -18 28 0
16 -6 32 -12 34 -8 3 -6 6 5 6 12 1 17 -7 17 -28z m143 19 c-13 -5 -23 -16
-23 -25 0 -9 10 -20 23 -25 22 -10 22 -10 -3 -7 -42 4 -40 68 2 66 l23 0 -22
-9z m207 -19 c0 -16 6 -32 13 -34 7 -3 5 -6 -5 -6 -13 -1 -18 7 -18 28 0 16
-6 32 -12 34 -8 3 -6 6 5 6 12 1 17 -7 17 -28z m148 22 c-12 -3 -18 -14 -18
-36 0 -23 -3 -28 -11 -20 -19 19 -2 63 24 62 17 -1 18 -2 5 -6z m-200 -80
c-10 -2 -28 -2 -40 0 -13 2 -5 4 17 4 22 1 32 -1 23 -4z m-787 -336 c14 -4 19
-13 18 -39 l-1 -33 -7 29 c-9 42 -29 44 -34 4 -2 -20 -4 -11 -4 22 0 30 1 48
4 39 2 -10 13 -19 24 -22z m229 -18 c0 -47 -2 -50 -22 -47 -32 4 -39 57 -9 65
12 3 21 12 21 19 0 8 2 14 5 14 3 0 5 -23 5 -51z m-152 21 c16 -1 16 -1 0 -10
-19 -12 -18 -37 3 -51 11 -8 10 -9 -6 -7 -13 2 -22 14 -26 33 -5 31 1 69 9 47
2 -7 11 -12 20 -12z m624 -2 c-15 -15 -16 -55 -2 -63 6 -3 10 -11 10 -17 0 -7
-6 -6 -15 2 -18 15 -20 71 -3 88 6 6 14 9 17 7 2 -3 -1 -11 -7 -17z m-754 -40
c-3 -38 -6 -43 -28 -45 -21 -2 -22 -1 -6 5 18 8 18 9 3 15 -17 6 -24 47 -10
60 3 4 15 7 25 7 16 0 19 -6 16 -42z m210 20 c2 -11 -5 -18 -20 -20 l-23 -5
25 -11 25 -12 -25 3 c-26 2 -37 25 -26 53 8 20 40 14 44 -8z m353 15 c0 -5 2
-18 5 -30 2 -12 -1 -25 -6 -28 -6 -4 -10 8 -11 27 -1 22 -3 26 -7 13 l-5 -20
-8 20 c-6 16 -8 14 -8 -12 -1 -18 -5 -33 -9 -33 -7 0 -8 22 -3 63 1 4 12 7 26
7 14 0 25 -3 26 -7z m67 -31 c3 -30 1 -33 -19 -30 -31 4 -36 28 -9 35 22 6 22
7 4 20 -19 14 -18 15 1 11 14 -2 21 -12 23 -36z m70 5 c2 -19 -2 -29 -15 -34
-10 -4 -21 -11 -25 -17 -4 -6 -8 11 -8 37 0 44 2 48 23 45 16 -2 23 -11 25
-31z m-285 16 c-7 -2 -21 -2 -30 0 -10 3 -4 5 12 5 17 0 24 -2 18 -5z m0 -30
c-7 -2 -21 -2 -30 0 -10 3 -4 5 12 5 17 0 24 -2 18 -5z m-73 -75 c-24 -10 -24
-10 -5 -18 18 -8 18 -9 2 -9 -13 -1 -18 -8 -17 -23 4 -40 -2 -44 -9 -8 -9 44
3 70 32 69 21 0 21 -1 -3 -11z m130 -32 c0 -26 5 -46 13 -49 7 -3 5 -6 -5 -6
-15 -1 -18 7 -18 43 0 26 -5 46 -12 49 -8 3 -6 6 5 6 14 1 17 -7 17 -43z m561
11 c14 -4 19 -13 18 -39 l-1 -33 -7 29 c-9 42 -29 44 -34 4 -2 -20 -4 -11 -4
22 0 30 1 48 4 39 2 -10 13 -19 24 -22z m210 0 c14 -4 19 -13 18 -39 l-1 -33
-7 29 c-9 42 -29 44 -34 4 -2 -20 -4 -11 -4 22 0 30 1 48 4 39 2 -10 13 -19
24 -22z m69 -11 c0 -26 5 -46 13 -49 7 -3 5 -6 -5 -6 -15 -1 -18 7 -18 43 0
26 -5 46 -12 49 -8 3 -6 6 5 6 14 1 17 -7 17 -43z m211 11 c14 -4 19 -13 18
-39 l-1 -33 -7 29 c-9 42 -29 44 -34 4 -2 -20 -4 -11 -4 22 0 30 1 48 4 39 2
-10 13 -19 24 -22z m219 21 c-24 -10 -24 -10 -5 -18 17 -7 17 -9 3 -9 -13 -1
-18 -10 -19 -33 l-2 -33 -6 35 c-9 44 3 70 32 69 21 0 21 -1 -3 -11z m130 -32
c0 -26 5 -46 13 -49 7 -3 5 -6 -5 -6 -18 -1 -22 12 -18 58 1 13 -4 28 -12 32
-10 7 -9 9 5 9 14 0 17 -9 17 -44z m420 0 c0 -26 5 -46 13 -49 7 -3 5 -6 -5
-6 -15 -1 -18 7 -18 43 0 26 -5 46 -12 49 -8 3 -6 6 5 6 14 1 17 -7 17 -43z
m290 32 c-24 -10 -24 -10 -5 -18 18 -8 18 -9 2 -9 -13 -1 -18 -8 -17 -23 4
-40 -2 -44 -9 -8 -9 44 3 70 32 69 21 0 21 -1 -3 -11z m130 -32 c0 -26 5 -46
13 -49 7 -3 5 -6 -5 -6 -15 -1 -18 7 -18 43 0 26 -5 46 -12 49 -8 3 -6 6 5 6
14 1 17 -7 17 -43z m-1110 11 c13 -5 13 -6 -1 -6 -19 -1 -18 -39 2 -52 11 -8
10 -9 -6 -7 -13 2 -22 14 -26 33 -6 33 0 62 10 47 3 -5 13 -12 21 -15z m412 1
c-15 -15 -16 -55 -2 -63 6 -3 10 -11 10 -17 0 -7 -6 -6 -15 2 -18 15 -20 71
-3 88 6 6 14 9 17 7 2 -3 -1 -11 -7 -17z m144 -6 c-19 -4 -15 -40 5 -53 11 -8
10 -9 -6 -7 -13 2 -22 14 -26 33 -8 44 -2 57 22 42 16 -10 17 -13 5 -15z m984
-21 c0 -26 -29 -79 -30 -54 0 6 5 15 10 18 6 3 10 17 10 30 0 13 -4 27 -10 30
-5 3 -10 11 -10 17 0 7 6 6 15 -2 8 -7 15 -25 15 -39z m-2740 0 c0 -16 6 -32
13 -34 7 -3 5 -6 -5 -6 -13 -1 -18 7 -18 28 0 16 -6 32 -12 34 -8 3 -6 6 5 6
12 1 17 -7 17 -28z m158 7 c2 -11 -5 -18 -20 -20 l-23 -5 25 -11 25 -12 -25 3
c-26 2 -37 25 -26 53 8 20 40 14 44 -8z m69 -18 c1 -33 1 -33 -5 -6 -10 42
-30 44 -35 4 -4 -33 -4 -33 -5 5 -2 34 0 38 21 35 18 -2 22 -10 24 -38z m71 2
c3 -30 1 -33 -19 -30 -31 4 -35 26 -7 37 l23 9 -25 11 -25 11 25 -3 c20 -2 26
-8 28 -35z m78 1 c0 -18 -4 -33 -9 -33 -5 0 -7 6 -4 13 2 6 1 21 -4 32 l-8 20
-1 -20 -1 -20 -9 20 c-7 16 -9 14 -9 -15 -1 -24 -4 -31 -10 -21 -5 7 -7 21 -6
30 2 9 4 20 4 24 1 5 13 7 29 5 23 -3 27 -8 28 -35z m62 15 c2 -11 -5 -18 -20
-20 l-23 -5 25 -11 25 -12 -25 3 c-26 2 -37 25 -26 53 8 20 40 14 44 -8z m262
-7 c0 -16 6 -32 13 -34 7 -3 5 -6 -5 -6 -13 -1 -18 7 -18 28 0 16 -6 32 -12
34 -8 3 -6 6 5 6 12 1 17 -7 17 -28z m88 -13 c-3 -38 -6 -43 -28 -45 l-25 -2
25 8 c25 7 25 7 3 13 -16 4 -23 14 -23 30 0 30 7 38 32 38 16 0 19 -6 16 -42z
m192 13 c0 -16 6 -32 13 -34 7 -3 5 -6 -5 -6 -13 -1 -18 7 -18 28 0 16 -6 32
-12 34 -8 3 -6 6 5 6 12 1 17 -7 17 -28z m88 -13 c-3 -38 -6 -43 -28 -45 l-25
-2 25 8 c25 7 25 7 3 13 -16 4 -23 14 -23 30 0 30 7 38 32 38 16 0 19 -6 16
-42z m332 13 c0 -16 6 -32 13 -34 7 -3 5 -6 -5 -6 -13 -1 -18 7 -18 28 0 16
-6 32 -12 34 -8 3 -6 6 5 6 12 1 17 -7 17 -28z m158 7 c2 -11 -5 -18 -20 -20
l-23 -5 25 -11 c24 -10 24 -11 3 -11 -28 -1 -45 27 -31 52 11 22 41 19 46 -5z
m122 12 c-13 -8 -12 -11 4 -23 11 -8 16 -19 12 -25 -8 -14 -46 -16 -46 -3 0 5
10 7 23 4 l22 -5 -24 20 c-25 20 -22 42 7 42 15 0 15 -2 2 -10z m149 -10 c7
18 10 20 10 7 1 -25 -27 -77 -42 -77 -8 0 -7 3 2 9 12 8 13 14 3 36 -17 36
-14 56 3 25 l14 -25 10 25z m149 -2 c2 -11 -5 -18 -20 -20 l-23 -5 25 -11 c24
-10 24 -11 3 -11 -28 -1 -45 27 -31 52 11 22 41 19 46 -5z m262 -7 c0 -16 6
-32 13 -34 7 -3 5 -6 -5 -6 -13 -1 -18 7 -18 28 0 16 -6 32 -12 34 -8 3 -6 6
5 6 12 1 17 -7 17 -28z m158 7 c2 -11 -5 -18 -20 -20 l-23 -5 25 -11 25 -12
-25 3 c-26 2 -37 25 -26 53 8 20 40 14 44 -8z m69 -18 c1 -33 1 -33 -5 -6 -10
42 -30 44 -35 4 -4 -33 -4 -33 -5 5 -2 34 0 38 21 35 18 -2 22 -10 24 -38z
m71 2 c3 -30 1 -33 -19 -30 -31 4 -35 26 -7 37 l23 9 -25 11 -25 11 25 -3 c20
-2 26 -8 28 -35z m77 11 c1 -12 -3 -28 -8 -35 -7 -10 -8 -9 -4 2 2 8 1 24 -4
35 l-8 20 -1 -20 -1 -20 -9 20 c-7 16 -9 14 -9 -15 -1 -24 -4 -31 -10 -21 -5
7 -7 21 -6 30 2 9 4 20 4 24 1 5 13 7 28 5 19 -2 27 -9 28 -25z m63 5 c2 -11
-5 -18 -20 -20 l-23 -5 25 -11 25 -12 -25 3 c-26 2 -37 25 -26 53 8 20 40 14
44 -8z m-640 -50 c-2 -6 -10 -14 -16 -16 -7 -2 -10 2 -6 12 7 18 28 22 22 4z
m770 0 c-2 -6 -10 -14 -16 -16 -7 -2 -10 2 -6 12 7 18 28 22 22 4z m-1530 -15
c-10 -2 -28 -2 -40 0 -13 2 -5 4 17 4 22 1 32 -1 23 -4z m-1698 -67 c0 -26 5
-46 13 -49 7 -3 5 -6 -5 -6 -15 -1 -18 7 -18 43 0 26 -5 46 -12 49 -8 3 -6 6
5 6 14 1 17 -7 17 -43z m500 -21 c0 -18 -7 -38 -15 -45 -9 -8 -15 -9 -15 -2 0
6 5 14 10 17 6 3 10 17 10 30 0 13 -4 27 -10 30 -5 3 -10 11 -10 17 0 7 6 6
15 -2 8 -7 15 -27 15 -45z m-412 12 c2 -12 -3 -17 -17 -17 -28 0 -27 -17 2
-23 19 -5 19 -5 -3 -4 -26 2 -37 25 -26 53 8 20 40 14 44 -9z m69 -17 c1 -33
1 -33 -5 -6 -10 42 -30 44 -35 4 -4 -33 -4 -33 -5 5 -2 34 0 38 21 35 18 -2
22 -10 24 -38z m71 2 c3 -30 1 -33 -19 -30 -30 4 -37 28 -10 35 26 7 27 20 4
27 -14 4 -14 4 2 3 15 -2 21 -11 23 -35z m78 1 c1 -18 -3 -33 -7 -33 -5 0 -10
15 -10 33 -1 22 -3 26 -7 12 l-5 -20 -8 20 c-6 16 -8 13 -8 -14 -1 -37 -14
-35 -17 2 -2 32 4 39 34 35 22 -3 27 -8 28 -35z m64 18 c9 -17 6 -20 -18 -23
l-27 -4 25 -12 25 -12 -25 3 c-25 2 -37 25 -26 53 8 20 33 17 46 -5z m46 12
c-19 -5 -18 -6 4 -23 13 -9 20 -22 16 -29 -8 -13 -46 -15 -46 -2 0 5 10 7 23
4 l22 -5 -24 20 c-25 20 -21 43 7 41 14 -1 13 -2 -2 -6z m-326 -434 c0 -47 -2
-50 -22 -47 -32 4 -39 57 -9 65 12 3 21 12 21 19 0 8 2 14 5 14 3 0 5 -23 5
-51z m680 7 c0 -26 5 -46 13 -49 7 -3 5 -6 -5 -6 -18 -1 -19 3 -21 57 0 15 -5
30 -11 34 -7 5 -4 8 7 8 14 0 17 -9 17 -44z m220 32 c-24 -10 -24 -10 -5 -18
17 -7 17 -9 3 -9 -13 -1 -18 -10 -19 -33 l-2 -33 -6 35 c-9 44 3 70 32 69 21
0 21 -1 -3 -11z m271 -21 c14 -4 19 -13 18 -39 l-1 -33 -7 29 c-9 42 -29 44
-34 4 -2 -20 -4 -11 -4 22 0 30 1 48 4 39 2 -10 13 -19 24 -22z m210 0 c14 -4
19 -13 18 -39 l-1 -33 -7 29 c-9 42 -29 44 -34 4 -2 -20 -4 -11 -4 22 0 30 1
48 4 39 2 -10 13 -19 24 -22z m69 -11 c0 -26 5 -46 13 -49 7 -3 5 -6 -5 -6
-15 -1 -18 7 -18 43 0 26 -5 46 -12 49 -8 3 -6 6 5 6 14 1 17 -7 17 -43z m211
11 c14 -4 19 -13 18 -39 l-1 -33 -7 29 c-9 42 -29 44 -34 4 -2 -20 -4 -11 -4
22 0 30 1 48 4 39 2 -10 13 -19 24 -22z m229 -18 c0 -47 -2 -50 -22 -47 -32 4
-39 57 -9 65 12 3 21 12 21 19 0 8 2 14 5 14 3 0 5 -23 5 -51z m-1418 19 c-15
-15 -16 -55 -2 -63 6 -3 10 -11 10 -17 0 -7 -6 -6 -15 2 -18 15 -20 71 -3 88
6 6 14 9 17 7 2 -3 -1 -11 -7 -17z m63 12 c-3 -5 2 -10 12 -11 15 0 16 -1 2
-7 -18 -8 -17 -41 3 -54 9 -7 8 -8 -7 -6 -29 5 -42 88 -13 88 5 0 6 -4 3 -10z
m1200 -18 c-21 -5 -19 -38 3 -52 16 -10 15 -10 -3 -8 -13 2 -22 13 -26 33 -8
44 -2 57 22 42 16 -10 17 -13 4 -15z m215 -27 c0 -18 -7 -38 -15 -45 -9 -8
-15 -9 -15 -2 0 6 5 14 10 17 6 3 10 17 10 30 0 13 -4 27 -10 30 -5 3 -10 11
-10 17 0 7 6 6 15 -2 8 -7 15 -27 15 -45z m-1665 15 c3 -11 2 -28 -4 -37 -9
-15 -11 -12 -12 17 -1 23 -3 28 -7 15 l-5 -20 -8 20 c-6 16 -8 14 -8 -13 -1
-18 -5 -31 -9 -28 -5 3 -8 15 -6 28 1 13 3 26 3 31 2 17 50 6 56 -13z m63 -18
c3 -30 1 -33 -19 -30 -31 4 -36 28 -9 35 22 6 22 7 4 20 -19 14 -18 15 1 11
14 -2 21 -12 23 -36z m70 5 c2 -19 -2 -29 -15 -34 -10 -4 -21 -11 -25 -17 -4
-6 -8 11 -8 37 0 44 2 48 23 45 16 -2 23 -11 25 -31z m192 4 c0 -16 6 -32 13
-34 7 -3 5 -6 -5 -6 -13 -1 -18 7 -18 28 0 16 -6 32 -12 34 -8 3 -6 6 5 6 12
1 17 -7 17 -28z m158 6 c2 -12 -3 -17 -17 -17 -28 0 -27 -20 2 -21 19 -1 20
-2 3 -6 -27 -7 -49 23 -35 49 12 23 42 20 47 -5z m52 -6 c0 -16 6 -32 13 -34
7 -3 5 -6 -5 -6 -13 -1 -18 7 -18 28 0 16 -6 32 -12 34 -8 3 -6 6 5 6 12 1 17
-7 17 -28z m148 5 c6 16 11 23 11 16 2 -23 -28 -82 -41 -82 -10 0 -9 3 1 9 12
8 13 14 3 36 -7 14 -12 31 -11 38 0 7 6 -1 13 -17 l13 -29 11 29z m272 -5 c0
-16 6 -32 13 -34 7 -3 5 -6 -5 -6 -13 -1 -18 7 -18 28 0 16 -6 32 -12 34 -8 3
-6 6 5 6 12 1 17 -7 17 -28z m88 -13 c-3 -38 -6 -43 -28 -45 l-25 -2 25 8 c25
7 25 7 3 13 -16 4 -23 14 -23 30 0 30 7 38 32 38 16 0 19 -6 16 -42z m192 13
c0 -16 6 -32 13 -34 7 -3 5 -6 -5 -6 -13 -1 -18 7 -18 28 0 16 -6 32 -12 34
-8 3 -6 6 5 6 12 1 17 -7 17 -28z m88 -13 c-3 -38 -6 -43 -28 -45 l-25 -2 25
8 c16 6 19 9 8 10 -42 2 -39 71 3 71 18 0 20 -5 17 -42z m210 20 c2 -11 -5
-18 -20 -20 l-23 -5 25 -11 c24 -10 24 -11 3 -11 -28 -1 -45 27 -31 52 11 22
41 19 46 -5z m-1685 5 c-7 -2 -21 -2 -30 0 -10 3 -4 5 12 5 17 0 24 -2 18 -5z
m0 -30 c-7 -2 -21 -2 -30 0 -10 3 -4 5 12 5 17 0 24 -2 18 -5z m905 -25 c-2
-6 -10 -14 -16 -16 -7 -2 -10 2 -6 12 7 18 28 22 22 4z m-625 -129 c-4 -4 -6
15 -3 44 l5 52 3 -44 c2 -24 0 -47 -5 -52z m347 26 c0 -18 -7 -38 -15 -45 -9
-8 -15 -9 -15 -2 0 6 5 14 10 17 6 3 10 17 10 30 0 13 -4 27 -10 30 -5 3 -10
11 -10 17 0 7 6 6 15 -2 8 -7 15 -27 15 -45z m-703 29 c-3 -3 -12 -4 -19 -1
-8 3 -5 6 6 6 11 1 17 -2 13 -5z m126 -1 c-15 -5 -18 -50 -4 -55 5 -1 3 -9 -5
-16 -12 -11 -14 -6 -14 33 0 36 3 45 18 44 10 0 12 -3 5 -6z m59 -19 c-2 -14
0 -29 6 -33 6 -4 5 -11 -4 -19 -12 -11 -14 -6 -14 33 0 25 4 45 9 45 4 0 6
-12 3 -26z m-145 -26 c-3 -7 -5 -2 -5 12 0 14 2 19 5 13 2 -7 2 -19 0 -25z
m238 15 c-11 -3 -23 -10 -27 -17 -5 -7 -8 -5 -8 7 0 12 7 17 28 16 21 -1 22
-2 7 -6z m-405 -124 c0 -47 -2 -50 -22 -47 -32 4 -39 57 -9 65 12 3 21 12 21
19 0 8 2 14 5 14 3 0 5 -23 5 -51z m263 34 c-8 -3 -13 -23 -13 -48 0 -25 5
-45 13 -48 7 -3 5 -6 -5 -6 -15 -1 -18 8 -18 54 0 46 3 55 18 54 10 0 12 -3 5
-6z m77 -48 c0 -46 -3 -55 -17 -54 -11 0 -13 3 -5 6 7 3 12 23 12 48 0 25 -5
45 -12 48 -8 3 -6 6 5 6 14 1 17 -8 17 -54z m-207 18 c-7 -2 -21 -2 -30 0 -10
3 -4 5 12 5 17 0 24 -2 18 -5z m0 -30 c-7 -2 -21 -2 -30 0 -10 3 -4 5 12 5 17
0 24 -2 18 -5z m567 -114 c0 -47 -2 -50 -22 -47 -32 4 -39 57 -9 65 12 3 21
12 21 19 0 8 2 14 5 14 3 0 5 -23 5 -51z m-720 -8 c0 -16 6 -32 13 -34 7 -3 5
-6 -5 -6 -13 -1 -18 7 -18 28 0 16 -6 32 -12 34 -8 3 -6 6 5 6 12 1 17 -7 17
-28z m63 21 c-6 -4 -13 -21 -16 -37 -4 -27 -4 -27 -6 8 -1 29 3 37 17 37 11 0
13 -3 5 -8z m162 -27 c0 -23 -4 -30 -20 -30 -21 0 -31 25 -21 51 11 28 41 12
41 -21z m58 25 c-13 -5 -23 -16 -23 -25 0 -9 10 -20 23 -25 22 -10 22 -10 -3
-7 -42 4 -40 68 2 66 l23 0 -22 -9z m75 3 c-12 -3 -18 -14 -18 -35 0 -35 -13
-31 -16 5 -2 30 3 37 29 36 17 -1 18 -2 5 -6z m77 -28 c0 -23 -4 -30 -20 -30
-21 0 -31 25 -21 51 11 28 41 12 41 -21z m73 2 c2 -19 -2 -29 -15 -34 -10 -4
-21 -11 -25 -17 -4 -6 -8 11 -8 37 0 44 2 48 23 45 16 -2 23 -11 25 -31z m71
16 c11 -21 -3 -53 -24 -53 -7 0 -16 -6 -18 -12 -3 -7 -6 8 -6 35 -1 40 2 47
19 47 10 0 23 -8 29 -17z m69 -5 c2 -11 -5 -18 -20 -20 l-23 -5 25 -11 25 -12
-25 3 c-26 2 -37 25 -26 53 8 20 40 14 44 -8z m-561 -35 c-3 -10 -5 -2 -5 17
0 19 2 27 5 18 2 -10 2 -26 0 -35z m53 -112 c0 -16 6 -32 13 -34 7 -3 5 -6 -5
-6 -13 -1 -18 7 -18 28 0 16 -6 32 -12 34 -8 3 -6 6 5 6 12 1 17 -7 17 -28z
m140 19 c0 -5 -7 -7 -15 -4 -8 4 -15 8 -15 10 0 2 7 4 15 4 8 0 15 -4 15 -10z
m86 -30 l2 -35 -5 33 c-6 42 -30 42 -36 0 -4 -32 -4 -32 -5 5 -2 34 0 38 21
35 18 -2 22 -10 23 -38z m127 30 c-13 -5 -23 -16 -23 -25 0 -9 10 -20 23 -25
22 -10 22 -10 -3 -7 -42 4 -40 68 2 66 l23 0 -22 -9z m-199 -53 c7 -6 6 -7 -4
-4 -8 2 -16 12 -17 23 -2 13 -1 15 4 4 3 -8 11 -19 17 -23z m286 -98 c0 -47
-2 -50 -22 -47 -32 4 -39 57 -9 65 12 3 21 12 21 19 0 8 2 14 5 14 3 0 5 -23
5 -51z m490 0 c0 -47 -2 -50 -22 -47 -32 4 -39 57 -9 65 12 3 21 12 21 19 0 8
2 14 5 14 3 0 5 -23 5 -51z m52 19 c-15 -15 -16 -55 -2 -63 6 -3 10 -11 10
-17 0 -7 -6 -6 -15 2 -8 7 -15 23 -15 37 0 28 19 68 28 59 3 -4 0 -12 -6 -18z
m148 -33 c0 -18 -7 -38 -15 -45 -9 -8 -15 -9 -15 -2 0 6 5 14 10 17 6 3 10 17
10 30 0 13 -4 27 -10 30 -5 3 -10 11 -10 17 0 7 6 6 15 -2 8 -7 15 -27 15 -45z
m-1127 25 c-13 -5 -23 -16 -23 -25 0 -9 10 -20 23 -25 22 -10 22 -10 -3 -7
-42 4 -40 68 2 66 l23 0 -22 -9z m75 3 c-12 -3 -18 -14 -18 -34 0 -18 -4 -28
-10 -24 -8 5 -8 39 -1 63 1 1 11 1 24 1 16 -1 18 -2 5 -6z m77 -28 c0 -23 -4
-30 -20 -30 -21 0 -31 25 -21 51 11 28 41 12 41 -21z m74 18 c11 -21 -3 -53
-24 -53 -7 0 -16 -6 -18 -12 -3 -7 -6 8 -6 35 -1 40 2 47 19 47 10 0 23 -8 29
-17z m70 0 c11 -21 -3 -53 -24 -53 -7 0 -16 -6 -18 -12 -3 -7 -6 8 -6 35 -1
40 2 47 19 47 10 0 23 -8 29 -17z m69 -5 c2 -11 -5 -18 -20 -20 l-23 -5 25
-11 25 -12 -25 3 c-26 2 -37 25 -26 53 8 20 40 14 44 -8z m210 -16 c3 -29 1
-32 -22 -32 -32 0 -36 29 -5 37 21 6 21 7 3 20 -19 14 -18 15 1 11 14 -2 21
-12 23 -36z m70 5 c2 -19 -2 -29 -15 -34 -10 -4 -21 -11 -25 -17 -4 -6 -8 11
-8 37 0 44 2 48 23 45 16 -2 23 -11 25 -31z m70 0 c2 -19 -2 -29 -15 -34 -10
-4 -21 -11 -25 -17 -4 -6 -8 11 -8 37 0 44 2 48 23 45 16 -2 23 -11 25 -31z
m70 11 c2 -11 -5 -18 -20 -20 l-23 -5 25 -11 c24 -10 24 -11 3 -11 -28 -1 -45
27 -31 52 11 22 41 19 46 -5z m69 -18 c1 -33 1 -33 -5 -6 -10 42 -30 44 -35 4
-4 -33 -4 -33 -5 5 -2 34 0 38 21 35 18 -2 22 -10 24 -38z m193 11 c0 -16 6
-32 13 -34 7 -3 5 -6 -5 -6 -13 -1 -18 7 -18 28 0 16 -6 32 -12 34 -8 3 -6 6
5 6 12 1 17 -7 17 -28z m145 -93 c-19 -11 -19 -11 0 -19 18 -7 18 -8 2 -8 -10
-1 -17 -7 -16 -13 4 -35 -4 -49 -10 -18 -8 41 3 70 27 70 15 -1 14 -2 -3 -12z
m925 -39 c0 -47 -2 -50 -22 -47 -32 4 -39 57 -9 65 12 3 21 12 21 19 0 8 2 14
5 14 3 0 5 -23 5 -51z m-570 18 c12 -4 11 -6 -2 -6 -21 -1 -19 -37 3 -52 11
-8 10 -9 -6 -7 -13 2 -22 14 -26 33 -6 33 0 62 10 47 3 -5 13 -12 21 -15z m62
1 c-15 -15 -16 -55 -2 -63 6 -3 10 -11 10 -17 0 -7 -6 -6 -15 2 -18 15 -20 71
-3 88 6 6 14 9 17 7 2 -3 -1 -11 -7 -17z m568 -33 c0 -18 -7 -38 -15 -45 -9
-8 -15 -9 -15 -2 0 6 5 14 10 17 6 3 10 17 10 30 0 13 -4 27 -10 30 -5 3 -10
11 -10 17 0 7 6 6 15 -2 8 -7 15 -27 15 -45z m70 0 c0 -18 -7 -38 -15 -45 -9
-8 -15 -9 -15 -2 0 6 5 14 10 17 6 3 10 17 10 30 0 13 -4 27 -10 30 -5 3 -10
11 -10 17 0 7 6 6 15 -2 8 -7 15 -27 15 -45z m-1740 5 c0 -22 -4 -40 -8 -40
-5 0 -7 14 -4 30 3 21 0 30 -9 30 -11 0 -11 2 1 10 8 5 16 10 18 10 1 0 2 -18
2 -40z m-570 26 c0 -2 -7 -7 -16 -10 -8 -3 -12 -2 -9 4 6 10 25 14 25 6z m144
-4 c-6 -4 -14 -14 -17 -22 -4 -10 -6 -8 -6 8 -1 15 5 22 17 22 10 0 13 -3 6
-8z m49 1 c-16 -6 -17 -50 -1 -55 7 -3 6 -7 -5 -11 -14 -5 -17 0 -17 27 0 35
6 47 24 45 6 0 5 -3 -1 -6z m84 1 c-3 -3 -12 -4 -19 -1 -8 3 -5 6 6 6 11 1 17
-2 13 -5z m80 0 c-3 -3 -12 -4 -19 -1 -8 3 -5 6 6 6 11 1 17 -2 13 -5z m66 -1
c-7 -2 -21 -2 -30 0 -10 3 -4 5 12 5 17 0 24 -2 18 -5z m280 0 c-7 -2 -21 -2
-30 0 -10 3 -4 5 12 5 17 0 24 -2 18 -5z m284 -30 c-3 -10 -5 -4 -5 12 0 17 2
24 5 18 2 -7 2 -21 0 -30z m348 2 c0 -23 -4 -30 -20 -30 -21 0 -31 25 -21 51
11 28 41 12 41 -21z m63 28 c-12 -3 -18 -14 -18 -35 0 -32 -12 -32 -17 0 -4
28 5 42 29 41 17 -1 18 -2 6 -6z m82 -2 c0 -5 3 -16 6 -25 3 -9 1 -16 -5 -16
-6 0 -12 10 -12 23 -1 20 -2 20 -7 2 l-5 -20 -8 20 c-6 16 -8 14 -8 -12 -1
-18 -5 -33 -9 -33 -4 0 -6 16 -4 35 3 29 8 35 28 35 13 0 24 -4 24 -9z m68
-29 c3 -30 1 -33 -19 -30 -30 4 -37 28 -10 35 26 7 27 20 4 27 -14 4 -14 4 2
3 15 -2 21 -11 23 -35z m195 28 c-13 -5 -23 -16 -23 -25 0 -9 10 -20 23 -25
22 -10 22 -10 -3 -7 -42 4 -40 68 2 66 l23 0 -22 -9z m75 3 c-12 -3 -18 -14
-18 -34 0 -16 -4 -29 -9 -29 -4 0 -7 15 -6 33 3 40 1 37 28 36 16 -1 18 -2 5
-6z m77 -28 c0 -23 -4 -30 -20 -30 -21 0 -31 25 -21 51 11 28 41 12 41 -21z
m73 2 c2 -19 -2 -29 -15 -34 -10 -4 -21 -11 -25 -17 -4 -6 -8 11 -8 37 0 44 2
48 23 45 16 -2 23 -11 25 -31z m70 0 c2 -19 -2 -29 -15 -34 -10 -4 -21 -11
-25 -17 -4 -6 -8 11 -8 37 0 44 2 48 23 45 16 -2 23 -11 25 -31z m70 11 c2
-11 -5 -18 -20 -20 l-23 -5 25 -11 c24 -10 24 -11 3 -11 -28 -1 -45 27 -31 52
11 22 41 19 46 -5z m-1624 -5 c9 4 16 2 16 -3 0 -6 -11 -10 -25 -10 -17 0 -25
5 -25 18 0 14 2 14 9 3 5 -8 16 -11 25 -8z m463 -15 c-3 -7 -5 -2 -5 12 0 14
2 19 5 13 2 -7 2 -19 0 -25z m-870 0 c-3 -8 -6 -5 -6 6 -1 11 2 17 5 13 3 -3
4 -12 1 -19z m205 -20 c-13 -13 -42 -3 -41 14 0 10 2 10 6 1 2 -7 12 -13 20
-13 9 0 13 6 10 14 -3 8 -3 17 1 21 4 4 9 -1 10 -10 2 -9 -1 -22 -6 -27z m245
10 c-3 -7 -5 -2 -5 12 0 14 2 19 5 13 2 -7 2 -19 0 -25z m180 -14 c-3 -3 -12
-4 -19 -1 -8 3 -5 6 6 6 11 1 17 -2 13 -5z m208 -22 c-3 -3 -11 0 -18 7 -9 10
-8 11 6 5 10 -3 15 -9 12 -12z m-905 -73 c0 -47 -2 -50 -22 -47 -32 4 -39 57
-9 65 12 3 21 12 21 19 0 8 2 14 5 14 3 0 5 -23 5 -51z m260 7 c0 -26 5 -46
13 -49 7 -3 5 -6 -5 -6 -15 -1 -18 7 -18 43 0 26 -5 46 -12 49 -8 3 -6 6 5 6
14 1 17 -7 17 -43z m160 -6 c0 -43 -3 -50 -20 -50 -25 0 -41 29 -29 52 5 10
16 18 24 18 8 0 15 7 15 15 0 8 2 15 5 15 3 0 5 -22 5 -50z m260 6 c0 -26 5
-46 13 -49 7 -3 5 -6 -5 -6 -17 -1 -24 26 -18 68 1 8 -4 18 -12 22 -10 7 -9 9
5 9 14 0 17 -9 17 -44z m-553 4 c-20 -8 -20 -33 0 -48 17 -13 17 -14 -2 -10
-13 2 -22 14 -26 33 -8 44 -2 57 22 42 13 -8 15 -13 6 -17z m773 7 c12 -4 11
-6 -2 -6 -21 -1 -19 -37 3 -52 11 -8 10 -9 -6 -7 -13 2 -22 14 -26 33 -6 33 0
62 10 47 3 -5 13 -12 21 -15z m62 1 c-15 -15 -16 -55 -2 -63 6 -3 10 -11 10
-17 0 -7 -6 -6 -15 2 -18 15 -20 71 -3 88 6 6 14 9 17 7 2 -3 -1 -11 -7 -17z
m280 0 c-15 -15 -16 -55 -2 -63 6 -3 10 -11 10 -18 0 -7 -7 -5 -16 5 -9 9 -16
28 -16 42 0 26 20 61 30 51 3 -3 0 -11 -6 -17z m-1314 -20 c2 -11 -5 -18 -20
-20 l-23 -5 25 -11 25 -12 -25 3 c-26 2 -37 25 -26 53 8 20 40 14 44 -8z m262
-7 c0 -16 6 -32 13 -34 7 -3 5 -6 -5 -6 -13 -1 -18 7 -18 28 0 16 -6 32 -12
34 -8 3 -6 6 5 6 12 1 17 -7 17 -28z m158 7 c2 -11 -5 -18 -20 -20 l-23 -5 25
-11 c24 -10 24 -11 3 -11 -28 -1 -45 27 -31 52 11 22 41 19 46 -5z m402 -7 c0
-16 6 -32 13 -34 7 -3 5 -6 -5 -6 -13 -1 -18 7 -18 28 0 16 -6 32 -12 34 -8 3
-6 6 5 6 12 1 17 -7 17 -28z m71 22 l-25 -5 23 -18 c14 -9 21 -22 17 -29 -8
-13 -46 -15 -46 -2 0 5 10 7 23 4 l22 -5 -24 20 c-27 22 -21 43 12 41 20 -2
20 -2 -2 -6z m230 0 c0 -5 2 -18 5 -30 2 -12 -1 -25 -6 -28 -6 -4 -10 8 -11
27 -1 22 -3 26 -7 13 l-5 -20 -8 20 c-6 16 -8 13 -8 -15 -1 -23 -4 -30 -10
-22 -4 7 -6 24 -3 38 3 17 11 24 28 24 13 0 24 -3 25 -7z m67 -31 c3 -30 1
-33 -19 -30 -31 4 -36 28 -9 35 22 6 22 7 4 20 -19 14 -18 15 1 11 14 -2 21
-12 23 -36z m70 5 c2 -19 -2 -29 -15 -34 -10 -4 -21 -11 -25 -17 -4 -6 -8 11
-8 37 0 44 2 48 23 45 16 -2 23 -11 25 -31z m-635 16 c-7 -2 -21 -2 -30 0 -10
3 -4 5 12 5 17 0 24 -2 18 -5z m0 -30 c-7 -2 -21 -2 -30 0 -10 3 -4 5 12 5 17
0 24 -2 18 -5z m-485 -40 c-10 -2 -28 -2 -40 0 -13 2 -5 4 17 4 22 1 32 -1 23
-4z m612 -67 c0 -26 5 -46 13 -49 7 -3 5 -6 -5 -6 -17 -1 -19 3 -21 62 -1 12
-6 25 -11 29 -7 5 -4 8 7 8 14 0 17 -9 17 -44z m281 11 c14 -4 19 -13 17 -39
l-1 -33 -4 33 c-3 18 -10 32 -18 32 -8 0 -15 -14 -18 -32 -2 -19 -4 -9 -4 22
0 30 1 48 4 39 2 -10 13 -19 24 -22z m1469 -11 c0 -26 5 -46 13 -49 7 -3 5 -6
-5 -6 -15 -1 -18 7 -18 43 0 26 -5 46 -12 49 -8 3 -6 6 5 6 14 1 17 -7 17 -43z
m281 11 c14 -4 19 -13 17 -39 l-1 -33 -4 33 c-3 18 -10 32 -18 32 -8 0 -15
-14 -18 -32 -2 -19 -4 -9 -4 22 0 30 1 48 4 39 2 -10 13 -19 24 -22z m279 -11
c0 -26 5 -46 13 -49 7 -3 5 -6 -5 -6 -15 -1 -18 7 -18 43 0 26 -5 46 -12 49
-8 3 -6 6 5 6 14 1 17 -7 17 -43z m281 11 c14 -4 19 -13 17 -39 l-1 -33 -4 33
c-3 18 -10 32 -18 32 -8 0 -15 -14 -18 -32 -2 -19 -4 -9 -4 22 0 30 1 48 4 39
2 -10 13 -19 24 -22z m-2443 3 c15 -1 15 -2 0 -11 -10 -5 -18 -16 -18 -24 0
-8 8 -19 18 -25 16 -10 15 -10 -3 -8 -13 2 -22 13 -26 33 -5 31 1 69 9 47 2
-7 11 -12 20 -12z m619 -10 c-9 -23 -9 -35 1 -50 16 -27 15 -35 -3 -20 -18 15
-20 71 -3 88 17 17 18 16 5 -18z m768 20 c-3 -5 2 -10 12 -11 15 0 16 -1 2 -7
-18 -8 -17 -41 3 -54 9 -7 8 -8 -7 -6 -29 5 -42 88 -13 88 5 0 6 -4 3 -10z
m350 0 c-3 -5 2 -11 12 -11 17 -1 17 -2 1 -6 -10 -2 -18 -13 -18 -23 0 -11 8
-24 18 -30 16 -10 15 -10 -3 -8 -29 5 -42 88 -13 88 5 0 6 -4 3 -10z m560 0
c-3 -5 2 -11 12 -11 17 -1 17 -2 1 -6 -10 -2 -18 -13 -18 -23 0 -11 8 -24 18
-30 16 -10 15 -10 -3 -8 -29 5 -42 88 -13 88 5 0 6 -4 3 -10z m365 -13 c12 -4
11 -6 -2 -6 -11 -1 -18 -9 -18 -21 0 -10 8 -24 18 -30 16 -10 15 -10 -3 -8
-13 2 -22 13 -26 33 -6 33 0 62 10 47 3 -5 13 -12 21 -15z m140 -32 c0 -18 -7
-38 -15 -45 -9 -8 -15 -9 -15 -2 0 6 5 14 10 17 6 3 10 17 10 30 0 13 -4 27
-10 30 -5 3 -10 11 -10 17 0 7 6 6 15 -2 8 -7 15 -27 15 -45z m-3370 6 c0 -16
6 -32 13 -34 7 -3 5 -6 -5 -6 -12 -1 -18 6 -18 22 0 13 -5 28 -12 35 -9 9 -8
12 5 12 12 0 17 -8 17 -29z m92 22 c5 -28 4 -63 -4 -63 -4 0 -6 11 -4 25 3 13
0 27 -5 30 -5 4 -9 -2 -10 -12 0 -14 -2 -15 -6 -3 -3 8 -11 18 -17 22 -6 4 1
8 17 8 15 0 28 -3 29 -7z m66 -35 c-3 -38 -6 -43 -28 -45 l-25 -2 25 8 c25 7
25 7 3 13 -16 4 -23 14 -23 30 0 30 7 38 32 38 16 0 19 -6 16 -42z m210 0 c-3
-38 -6 -43 -28 -45 -21 -2 -22 -1 -6 5 18 8 18 9 3 15 -17 6 -24 47 -10 60 3
4 15 7 25 7 16 0 19 -6 16 -42z m122 13 c0 -16 6 -32 13 -34 7 -3 5 -6 -5 -6
-13 -1 -18 7 -18 28 0 16 -6 32 -12 34 -8 3 -6 6 5 6 12 1 17 -7 17 -28z m143
19 c-13 -5 -23 -16 -23 -25 0 -9 10 -20 23 -25 22 -10 22 -10 -3 -7 -42 4 -40
68 2 66 l23 0 -22 -9z m207 -19 c0 -16 6 -32 13 -34 7 -3 5 -6 -5 -6 -13 -1
-18 7 -18 28 0 16 -6 32 -12 34 -8 3 -6 6 5 6 12 1 17 -7 17 -28z m91 20 c0
-3 2 -13 4 -22 1 -9 -1 -23 -6 -30 -6 -10 -9 -3 -10 21 -1 23 -3 28 -7 15 l-5
-20 -8 20 c-6 16 -8 13 -9 -15 -1 -28 -3 -31 -9 -15 -12 31 -2 53 25 53 13 0
24 -3 25 -7z m67 -28 c3 -30 1 -33 -22 -33 -31 0 -36 29 -6 37 27 7 25 20 -2
26 -20 5 -20 5 2 4 20 -2 26 -8 28 -34z m70 -5 c-3 -38 -6 -43 -28 -45 l-25
-2 25 8 c25 7 25 7 3 13 -16 4 -23 14 -23 30 0 30 7 38 32 38 16 0 19 -6 16
-42z m70 20 c2 -11 -5 -18 -20 -20 l-23 -5 25 -11 25 -12 -25 3 c-26 2 -37 25
-26 53 8 20 40 14 44 -8z m122 -7 c0 -16 6 -32 13 -34 7 -3 5 -6 -5 -6 -13 -1
-18 7 -18 28 0 16 -6 32 -12 34 -8 3 -6 6 5 6 12 1 17 -7 17 -28z m95 9 c3
-11 2 -28 -4 -37 -9 -15 -11 -12 -11 17 -1 29 -3 31 -10 15 l-9 -20 -2 20 c-1
12 -5 6 -9 -15 l-7 -35 -2 38 c-1 33 2 37 23 37 16 0 27 -7 31 -20z m63 -22
c-3 -38 -6 -43 -28 -45 l-25 -2 25 8 c25 7 25 7 3 13 -16 4 -23 14 -23 30 0
30 7 38 32 38 16 0 19 -6 16 -42z m210 4 c3 -30 1 -33 -19 -30 -30 4 -37 28
-10 35 26 7 27 20 4 27 -14 4 -14 4 2 3 15 -2 21 -11 23 -35z m73 26 c0 -7 2
-23 5 -35 2 -13 -1 -23 -6 -23 -6 0 -9 3 -9 8 1 4 0 18 -1 32 -2 22 -3 22 -8
5 l-5 -20 -8 20 c-6 16 -8 14 -8 -12 -1 -18 -5 -33 -10 -33 -5 0 -8 8 -6 18 2
9 4 25 4 35 1 20 51 25 52 5z m64 -23 c0 -23 -4 -30 -20 -30 -21 0 -31 25 -21
51 11 28 41 12 41 -21z m52 -22 c7 -3 13 9 16 29 4 33 4 33 5 -5 2 -34 0 -38
-20 -35 -19 2 -23 10 -25 38 -1 33 -1 33 5 6 4 -16 12 -31 19 -33z m90 17 c1
-33 1 -33 -5 -6 -10 42 -30 44 -35 4 -4 -33 -4 -33 -5 5 -2 34 0 38 21 35 18
-2 22 -10 24 -38z m211 -2 c-3 -38 -6 -43 -28 -45 -21 -2 -22 -1 -6 5 18 8 18
9 3 15 -17 6 -24 47 -10 60 3 4 15 7 25 7 16 0 19 -6 16 -42z m122 13 c0 -16
6 -32 13 -34 7 -3 5 -6 -5 -6 -13 -1 -18 7 -18 28 0 16 -6 32 -12 34 -8 3 -6
6 5 6 12 1 17 -7 17 -28z m143 19 c-13 -5 -23 -16 -23 -25 0 -9 10 -20 23 -25
22 -10 22 -10 -3 -7 -42 4 -40 68 2 66 l23 0 -22 -9z m295 -32 c-3 -38 -6 -43
-28 -45 -21 -2 -22 -1 -6 5 18 8 18 9 3 15 -17 6 -24 47 -10 60 3 4 15 7 25 7
16 0 19 -6 16 -42z m122 13 c0 -16 6 -32 13 -34 7 -3 5 -6 -5 -6 -13 -1 -18 7
-18 28 0 16 -6 32 -12 34 -8 3 -6 6 5 6 12 1 17 -7 17 -28z m143 19 c-13 -5
-23 -16 -23 -25 0 -9 10 -20 23 -25 22 -10 22 -10 -3 -7 -42 4 -40 68 2 66
l23 0 -22 -9z m207 -19 c0 -16 6 -32 13 -34 7 -3 5 -6 -5 -6 -13 -1 -18 7 -18
28 0 16 -6 32 -12 34 -8 3 -6 6 5 6 12 1 17 -7 17 -28z m148 22 c-12 -3 -18
-14 -18 -34 0 -17 -4 -28 -9 -24 -7 4 -8 39 -2 63 1 1 11 1 24 1 16 -1 18 -2
5 -6z m-3248 -38 c0 -14 -4 -25 -9 -25 -5 0 -8 8 -6 18 2 9 4 20 4 25 2 19 11
4 11 -18z m1428 -27 c-2 -6 -10 -14 -16 -16 -7 -2 -10 2 -6 12 7 18 28 22 22
4z m1050 0 c-2 -6 -10 -14 -16 -16 -7 -2 -10 2 -6 12 7 18 28 22 22 4z m910 0
c-2 -6 -10 -14 -16 -16 -7 -2 -10 2 -6 12 7 18 28 22 22 4z m-2650 -15 c-10
-2 -28 -2 -40 0 -13 2 -5 4 17 4 22 1 32 -1 23 -4z m1260 0 c-10 -2 -28 -2
-40 0 -13 2 -5 4 17 4 22 1 32 -1 23 -4z m1050 0 c-10 -2 -28 -2 -40 0 -13 2
-5 4 17 4 22 1 32 -1 23 -4z m-3148 -73 c0 -44 -3 -50 -20 -50 -24 0 -43 39
-28 58 6 6 17 12 24 12 8 0 14 7 14 15 0 8 2 15 5 15 3 0 5 -22 5 -50z m60
-15 c0 -18 -7 -38 -15 -45 -9 -8 -15 -9 -15 -2 0 6 5 14 10 17 6 3 10 17 10
30 0 13 -4 27 -10 30 -5 3 -10 11 -10 17 0 7 6 6 15 -2 8 -7 15 -27 15 -45z
m70 0 c0 -18 -7 -38 -15 -45 -9 -8 -15 -9 -15 -2 0 6 5 14 10 17 6 3 10 17 10
30 0 13 -4 27 -10 30 -5 3 -10 11 -10 17 0 7 6 6 15 -2 8 -7 15 -27 15 -45z
m-341 18 c11 -21 -3 -53 -24 -53 -7 0 -16 -6 -18 -12 -3 -7 -6 8 -6 35 -1 40
2 47 19 47 10 0 23 -8 29 -17z m70 0 c11 -21 -3 -53 -24 -53 -7 0 -16 -6 -18
-12 -3 -7 -6 8 -6 35 -1 40 2 47 19 47 10 0 23 -8 29 -17z m69 -5 c2 -11 -5
-18 -20 -20 l-23 -5 25 -11 25 -12 -25 3 c-26 2 -37 25 -26 53 8 20 40 14 44
-8z m-138 -139 c0 -47 -2 -50 -22 -47 -32 4 -39 57 -9 65 12 3 21 12 21 19 0
8 2 14 5 14 3 0 5 -23 5 -51z m472 19 c-15 -15 -16 -55 -2 -63 6 -3 10 -11 10
-17 0 -7 -6 -6 -15 2 -18 15 -20 71 -3 88 6 6 14 9 17 7 2 -3 -1 -11 -7 -17z
m-544 -20 c2 -11 -5 -18 -20 -20 l-23 -5 25 -11 25 -12 -25 3 c-26 2 -37 25
-26 53 8 20 40 14 44 -8z m356 6 c9 -25 7 -56 -4 -49 -5 3 -10 18 -11 33 0 24
-1 25 -9 7 l-9 -20 -2 20 c-1 12 -5 6 -9 -15 l-7 -35 -2 38 c-1 33 2 37 23 37
13 0 27 -7 30 -16z m64 -22 c3 -30 1 -33 -19 -30 -31 4 -36 28 -9 35 22 6 22
7 4 20 -19 14 -18 15 1 11 14 -2 21 -12 23 -36z m70 5 c3 -22 -1 -30 -17 -34
-13 -3 -18 -11 -14 -21 4 -15 3 -15 -6 -2 -6 8 -11 32 -11 53 0 34 3 38 23 35
16 -2 23 -11 25 -31z m503 16 c6 -6 -2 -8 -22 -5 -22 3 -30 1 -25 -7 11 -17
-22 -25 -47 -12 -12 6 -14 9 -4 7 12 -4 17 0 17 14 0 16 6 19 36 16 19 -2 40
-8 45 -13z m109 7 c0 -5 -2 -10 -4 -10 -3 0 -8 5 -11 10 -3 6 -1 10 4 10 6 0
11 -4 11 -10z m477 -4 c-3 -8 2 -16 14 -19 12 -3 19 -14 19 -29 0 -18 -2 -20
-9 -8 -6 8 -7 18 -4 24 4 5 0 7 -9 3 -17 -6 -38 10 -38 30 0 7 7 13 16 13 10
0 14 -6 11 -14z m-1374 -3 c-7 -2 -21 -2 -30 0 -10 3 -4 5 12 5 17 0 24 -2 18
-5z m2117 -12 c0 -23 -16 -36 -25 -21 -9 14 1 40 15 40 5 0 10 -9 10 -19z m65
9 c3 -5 -1 -10 -10 -10 -9 0 -13 5 -10 10 3 6 8 10 10 10 2 0 7 -4 10 -10z
m-2182 -27 c-7 -2 -21 -2 -30 0 -10 3 -4 5 12 5 17 0 24 -2 18 -5z m2042 -3
c3 -5 -1 -10 -10 -10 -9 0 -13 5 -10 10 3 6 8 10 10 10 2 0 7 -4 10 -10z
m-1672 -77 c-7 -2 -21 -2 -30 0 -10 3 -4 5 12 5 17 0 24 -2 18 -5z m-90 -26
c4 3 9 -2 13 -11 4 -10 1 -23 -5 -29 -9 -9 -13 -6 -17 11 -4 12 -10 22 -15 22
-5 0 -9 5 -9 11 0 8 4 9 13 0 8 -6 17 -8 20 -4z m-335 -24 c-4 -22 -22 -20
-26 1 -2 10 3 16 13 16 10 0 15 -7 13 -17z m417 -1 c0 -18 -20 -15 -23 4 -3
10 1 15 10 12 7 -3 13 -10 13 -16z m280 0 c0 -18 -20 -15 -23 4 -3 10 1 15 10
12 7 -3 13 -10 13 -16z m-490 -12 c3 -5 1 -10 -4 -10 -6 0 -11 5 -11 10 0 6 2
10 4 10 3 0 8 -4 11 -10z"/>
<path d="M302 4808 c5 -32 28 -35 28 -4 0 17 -5 26 -16 26 -10 0 -14 -7 -12
-22z"/>
<path d="M160 4790 c0 -5 7 -10 15 -10 8 0 15 5 15 10 0 6 -7 10 -15 10 -8 0
-15 -4 -15 -10z"/>
<path d="M370 4806 c0 -17 5 -26 16 -26 10 0 14 7 12 22 -5 32 -28 35 -28 4z"/>
<path d="M650 4790 c0 -5 7 -10 15 -10 8 0 15 5 15 10 0 6 -7 10 -15 10 -8 0
-15 -4 -15 -10z"/>
<path d="M790 4806 c0 -17 5 -26 16 -26 10 0 14 7 12 22 -5 32 -28 35 -28 4z"/>
<path d="M935 4820 c-3 -5 1 -10 10 -10 9 0 13 5 10 10 -3 6 -8 10 -10 10 -2
0 -7 -4 -10 -10z"/>
<path d="M1285 4820 c-3 -5 1 -10 10 -10 9 0 13 5 10 10 -3 6 -8 10 -10 10 -2
0 -7 -4 -10 -10z"/>
<path d="M2055 4820 c-3 -5 1 -10 9 -10 9 0 16 5 16 10 0 6 -4 10 -9 10 -6 0
-13 -4 -16 -10z"/>
<path d="M2330 4805 c0 -17 5 -25 13 -22 6 2 12 12 12 22 0 10 -6 20 -12 23
-8 2 -13 -6 -13 -23z"/>
<path d="M2545 4820 c-3 -5 1 -10 9 -10 9 0 16 5 16 10 0 6 -4 10 -9 10 -6 0
-13 -4 -16 -10z"/>
<path d="M650 4400 c0 -5 7 -10 15 -10 8 0 15 5 15 10 0 6 -7 10 -15 10 -8 0
-15 -4 -15 -10z"/>
<path d="M790 4370 c0 -5 7 -10 15 -10 8 0 15 5 15 10 0 6 -7 10 -15 10 -8 0
-15 -4 -15 -10z"/>
<path d="M935 4400 c-3 -5 1 -10 9 -10 9 0 16 5 16 10 0 6 -4 10 -9 10 -6 0
-13 -4 -16 -10z"/>
<path d="M725 4260 c-3 -5 1 -10 9 -10 9 0 16 5 16 10 0 6 -4 10 -9 10 -6 0
-13 -4 -16 -10z"/>
<path d="M440 4090 c0 -5 7 -10 15 -10 8 0 15 5 15 10 0 6 -7 10 -15 10 -8 0
-15 -4 -15 -10z"/>
<path d="M580 4106 c0 -17 5 -26 16 -26 10 0 14 7 12 22 -5 32 -28 35 -28 4z"/>
<path d="M930 4105 c0 -16 6 -25 15 -25 9 0 15 9 15 25 0 16 -6 25 -15 25 -9
0 -15 -9 -15 -25z"/>
<path d="M447 3983 c-13 -12 -7 -43 8 -43 9 0 15 9 15 25 0 24 -10 32 -23 18z"/>
<path d="M302 3548 c5 -32 28 -35 28 -4 0 17 -5 26 -16 26 -10 0 -14 -7 -12
-22z"/>
<path d="M27 3563 c-13 -12 -7 -43 8 -43 9 0 15 9 15 25 0 24 -10 32 -23 18z"/>
<path d="M235 3560 c-3 -5 1 -10 9 -10 9 0 16 5 16 10 0 6 -4 10 -9 10 -6 0
-13 -4 -16 -10z"/>
<path d="M650 3530 c0 -5 7 -10 15 -10 8 0 15 5 15 10 0 6 -7 10 -15 10 -8 0
-15 -4 -15 -10z"/>
<path d="M720 3546 c0 -17 5 -26 16 -26 10 0 14 7 12 22 -5 32 -28 35 -28 4z"/>
<path d="M580 3420 c0 -5 7 -10 16 -10 8 0 12 5 9 10 -3 6 -10 10 -16 10 -5 0
-9 -4 -9 -10z"/>
<path d="M720 3390 c0 -5 7 -10 15 -10 8 0 15 5 15 10 0 6 -7 10 -15 10 -8 0
-15 -4 -15 -10z"/>
<path d="M865 3420 c-3 -5 1 -10 9 -10 9 0 16 5 16 10 0 6 -4 10 -9 10 -6 0
-13 -4 -16 -10z"/>
<path d="M1217 3423 c-13 -12 -7 -43 8 -43 9 0 15 9 15 25 0 24 -10 32 -23 18z"/>
<path d="M1490 3405 c0 -16 6 -25 15 -25 9 0 15 9 15 25 0 16 -6 25 -15 25 -9
0 -15 -9 -15 -25z"/>
<path d="M1980 3420 c0 -5 7 -10 15 -10 8 0 15 5 15 10 0 6 -7 10 -15 10 -8 0
-15 -4 -15 -10z"/>
<path d="M2400 3420 c0 -5 7 -10 15 -10 8 0 15 5 15 10 0 6 -7 10 -15 10 -8 0
-15 -4 -15 -10z"/>
<path d="M2820 3420 c0 -5 7 -10 16 -10 8 0 12 5 9 10 -3 6 -10 10 -16 10 -5
0 -9 -4 -9 -10z"/>
<path d="M2960 3390 c0 -5 7 -10 15 -10 8 0 15 5 15 10 0 6 -7 10 -15 10 -8 0
-15 -4 -15 -10z"/>
<path d="M3105 3420 c-3 -5 1 -10 9 -10 9 0 16 5 16 10 0 6 -4 10 -9 10 -6 0
-13 -4 -16 -10z"/>
<path d="M90 3280 c0 -5 7 -10 15 -10 8 0 15 5 15 10 0 6 -7 10 -15 10 -8 0
-15 -4 -15 -10z"/>
<path d="M230 3250 c0 -5 7 -10 15 -10 8 0 15 5 15 10 0 6 -7 10 -15 10 -8 0
-15 -4 -15 -10z"/>
<path d="M375 3280 c-3 -5 1 -10 9 -10 9 0 16 5 16 10 0 6 -4 10 -9 10 -6 0
-13 -4 -16 -10z"/>
<path d="M90 2845 c0 -16 6 -25 15 -25 9 0 15 9 15 25 0 16 -6 25 -15 25 -9 0
-15 -9 -15 -25z"/>
<path d="M1984 2855 c-3 -8 -3 -19 1 -25 11 -18 25 -11 25 15 0 27 -17 34 -26
10z"/>
<path d="M440 2830 c0 -5 7 -10 15 -10 8 0 15 5 15 10 0 6 -7 10 -15 10 -8 0
-15 -4 -15 -10z"/>
<path d="M510 2846 c0 -17 5 -26 16 -26 10 0 14 7 12 22 -5 32 -28 35 -28 4z"/>
<path d="M860 2860 c0 -5 7 -10 15 -10 8 0 15 5 15 10 0 6 -7 10 -15 10 -8 0
-15 -4 -15 -10z"/>
<path d="M1420 2845 c0 -16 6 -25 15 -25 9 0 15 9 15 25 0 16 -6 25 -15 25 -9
0 -15 -9 -15 -25z"/>
<path d="M1700 2845 c0 -16 6 -25 15 -25 9 0 15 9 15 25 0 16 -6 25 -15 25 -9
0 -15 -9 -15 -25z"/>
<path d="M1910 2860 c0 -5 7 -10 15 -10 8 0 15 5 15 10 0 6 -7 10 -15 10 -8 0
-15 -4 -15 -10z"/>
<path d="M20 2565 c0 -16 6 -25 15 -25 9 0 15 9 15 25 0 16 -6 25 -15 25 -9 0
-15 -9 -15 -25z"/>
<path d="M722 2428 c5 -32 28 -35 28 -4 0 17 -5 26 -16 26 -10 0 -14 -7 -12
-22z"/>
<path d="M234 2436 c-4 -10 -2 -22 4 -28 8 -8 13 -7 18 6 4 10 2 22 -4 28 -8
8 -13 7 -18 -6z"/>
<path d="M447 2444 c-11 -11 -8 -44 3 -44 15 0 24 30 13 41 -5 5 -12 6 -16 3z"/>
<path d="M512 2429 c1 -12 9 -24 16 -27 9 -3 13 3 10 19 -1 12 -9 24 -16 27
-9 3 -13 -3 -10 -19z"/>
<path d="M580 2426 c0 -17 5 -26 16 -26 10 0 14 7 12 22 -5 32 -28 35 -28 4z"/>
<path d="M650 2440 c0 -5 7 -10 15 -10 8 0 15 5 15 10 0 6 -7 10 -15 10 -8 0
-15 -4 -15 -10z"/>
<path d="M580 2145 c0 -16 6 -25 15 -25 9 0 15 9 15 25 0 16 -6 25 -15 25 -9
0 -15 -9 -15 -25z"/>
<path d="M1074 2155 c-3 -8 -3 -19 1 -25 11 -18 25 -11 25 15 0 27 -17 34 -26
10z"/>
<path d="M300 2145 c0 -17 5 -25 13 -22 6 2 12 12 12 22 0 10 -6 20 -12 23 -8
2 -13 -6 -13 -23z"/>
<path d="M370 2146 c0 -17 5 -26 16 -26 10 0 14 7 12 22 -5 32 -28 35 -28 4z"/>
<path d="M440 2146 c0 -17 5 -26 16 -26 10 0 14 7 12 22 -5 32 -28 35 -28 4z"/>
<path d="M510 2160 c0 -5 7 -10 15 -10 8 0 15 5 15 10 0 6 -7 10 -15 10 -8 0
-15 -4 -15 -10z"/>
<path d="M720 2130 c0 -5 7 -10 15 -10 8 0 15 5 15 10 0 6 -7 10 -15 10 -8 0
-15 -4 -15 -10z"/>
<path d="M790 2145 c0 -17 5 -25 13 -22 6 2 12 12 12 22 0 10 -6 20 -12 23 -8
2 -13 -6 -13 -23z"/>
<path d="M860 2145 c0 -17 5 -25 13 -22 6 2 12 12 12 22 0 10 -6 20 -12 23 -8
2 -13 -6 -13 -23z"/>
<path d="M930 2160 c0 -5 7 -10 15 -10 8 0 15 5 15 10 0 6 -7 10 -15 10 -8 0
-15 -4 -15 -10z"/>
<path d="M2260 2005 c0 -16 6 -25 15 -25 9 0 15 9 15 25 0 16 -6 25 -15 25 -9
0 -15 -9 -15 -25z"/>
<path d="M1422 2009 c1 -13 8 -23 13 -21 15 3 12 35 -3 40 -9 3 -13 -3 -10
-19z"/>
<path d="M1630 1990 c0 -5 7 -10 15 -10 8 0 15 5 15 10 0 6 -7 10 -15 10 -8 0
-15 -4 -15 -10z"/>
<path d="M1980 2006 c0 -17 5 -26 16 -26 10 0 14 7 12 22 -5 32 -28 35 -28 4z"/>
<path d="M2050 2005 c0 -17 5 -25 13 -22 6 2 12 12 12 22 0 10 -6 20 -12 23
-8 2 -13 -6 -13 -23z"/>
<path d="M2120 2004 c0 -31 23 -28 28 4 2 15 -2 22 -12 22 -11 0 -16 -9 -16
-26z"/>
<path d="M2195 2020 c-3 -5 1 -10 10 -10 9 0 13 5 10 10 -3 6 -8 10 -10 10 -2
0 -7 -4 -10 -10z"/>
<path d="M92 1868 c5 -32 28 -35 28 -4 0 17 -5 26 -16 26 -10 0 -14 -7 -12
-22z"/>
<path d="M514 1875 c-3 -8 -3 -19 1 -25 11 -18 25 -11 25 15 0 27 -17 34 -26
10z"/>
<path d="M20 1880 c0 -5 7 -10 15 -10 8 0 15 5 15 10 0 6 -7 10 -15 10 -8 0
-15 -4 -15 -10z"/>
<path d="M445 1880 c-3 -5 1 -10 9 -10 9 0 16 5 16 10 0 6 -4 10 -9 10 -6 0
-13 -4 -16 -10z"/>
<path d="M1210 1850 c0 -5 7 -10 15 -10 8 0 15 5 15 10 0 6 -7 10 -15 10 -8 0
-15 -4 -15 -10z"/>
<path d="M1280 1866 c0 -17 5 -26 16 -26 10 0 14 7 12 22 -5 32 -28 35 -28 4z"/>
<path d="M517 1743 c-13 -12 -7 -43 8 -43 9 0 15 9 15 25 0 24 -10 32 -23 18z"/>
<path d="M727 1743 c-13 -12 -7 -43 8 -43 9 0 15 9 15 25 0 24 -10 32 -23 18z"/>
<path d="M1350 1710 c0 -5 7 -10 15 -10 8 0 15 5 15 10 0 6 -7 10 -15 10 -8 0
-15 -4 -15 -10z"/>
<path d="M1427 1743 c-13 -12 -7 -43 8 -43 9 0 15 9 15 25 0 24 -10 32 -23 18z"/>
<path d="M1490 1740 c0 -5 7 -10 15 -10 8 0 15 5 15 10 0 6 -7 10 -15 10 -8 0
-15 -4 -15 -10z"/>
<path d="M1777 1743 c-13 -12 -7 -43 8 -43 9 0 15 9 15 25 0 24 -10 32 -23 18z"/>
<path d="M1980 1710 c0 -5 7 -10 15 -10 8 0 15 5 15 10 0 6 -7 10 -15 10 -8 0
-15 -4 -15 -10z"/>
<path d="M2127 1743 c-4 -3 -7 -15 -7 -25 0 -26 24 -17 28 10 3 21 -8 29 -21
15z"/>
<path d="M2470 1725 c0 -16 6 -25 15 -25 9 0 15 9 15 25 0 16 -6 25 -15 25 -9
0 -15 -9 -15 -25z"/>
<path d="M3030 1725 c0 -16 6 -25 15 -25 9 0 15 9 15 25 0 16 -6 25 -15 25 -9
0 -15 -9 -15 -25z"/>
<path d="M302 1588 c5 -32 28 -35 28 -4 0 17 -5 26 -16 26 -10 0 -14 -7 -12
-22z"/>
<path d="M90 1586 c0 -17 5 -26 16 -26 10 0 14 7 12 22 -5 32 -28 35 -28 4z"/>
<path d="M160 1586 c0 -17 5 -26 16 -26 10 0 14 7 12 22 -5 32 -28 35 -28 4z"/>
<path d="M235 1600 c-3 -5 1 -10 10 -10 9 0 13 5 10 10 -3 6 -8 10 -10 10 -2
0 -7 -4 -10 -10z"/>
<path d="M92 1448 c5 -32 28 -35 28 -4 0 17 -5 26 -16 26 -10 0 -14 -7 -12
-22z"/>
<path d="M25 1460 c-3 -5 1 -10 9 -10 9 0 16 5 16 10 0 6 -4 10 -9 10 -6 0
-13 -4 -16 -10z"/>
<path d="M440 1430 c0 -5 7 -10 15 -10 8 0 15 5 15 10 0 6 -7 10 -15 10 -8 0
-15 -4 -15 -10z"/>
<path d="M510 1445 c0 -17 5 -25 13 -22 6 2 12 12 12 22 0 10 -6 20 -12 23 -8
2 -13 -6 -13 -23z"/>
<path d="M25 2860 c-3 -5 1 -10 9 -10 9 0 16 5 16 10 0 6 -4 10 -9 10 -6 0
-13 -4 -16 -10z"/>
<path d="M22 1589 c1 -13 8 -23 13 -21 15 3 12 35 -3 40 -9 3 -13 -3 -10 -19z"/>
<path d="M1344 1447 c3 -14 2 -27 -5 -29 -20 -7 1 -36 23 -30 17 4 18 6 5 13
-9 5 -13 18 -10 33 3 13 -1 27 -8 31 -9 6 -10 1 -5 -18z"/>
<path d="M1451 1414 c0 -11 3 -14 6 -6 3 7 2 16 -1 19 -3 4 -6 -2 -5 -13z"/>
<path d="M1514 1408 c-5 -7 -2 -9 7 -6 11 4 14 -3 11 -32 -4 -34 -6 -37 -30
-32 -24 4 -25 3 -10 -9 9 -8 18 -23 20 -34 2 -13 12 -21 28 -23 22 -2 23 -1 8
8 -19 12 -25 40 -9 40 5 0 9 12 9 28 -1 15 2 37 6 50 6 18 4 22 -13 22 -11 0
-23 -5 -27 -12z"/>
<path d="M990 1395 c-10 -12 -9 -16 3 -21 20 -7 37 3 37 22 0 18 -24 18 -40
-1z m25 -5 c-3 -5 -11 -10 -16 -10 -6 0 -7 5 -4 10 3 6 11 10 16 10 6 0 7 -4
4 -10z"/>
<path d="M1405 1390 c3 -5 -3 -10 -14 -10 -12 0 -21 -5 -21 -11 0 -6 8 -8 19
-4 15 4 20 1 19 -12 -1 -29 20 -73 39 -80 15 -6 15 -7 -3 -15 -16 -6 -15 -7 6
-5 20 2 26 8 28 35 2 17 -1 32 -6 32 -5 0 -9 -6 -8 -12 0 -7 -3 -13 -9 -13 -5
0 -9 17 -7 38 2 22 -1 37 -8 37 -6 0 -8 -10 -4 -26 5 -19 4 -25 -5 -20 -6 4
-11 23 -11 42 0 19 -5 34 -11 34 -5 0 -7 -4 -4 -10z"/>
<path d="M1560 1360 c0 -22 4 -40 9 -40 5 0 12 -11 15 -25 5 -18 13 -25 29
-24 17 1 18 2 5 6 -14 4 -18 15 -18 59 0 34 -4 53 -10 49 -5 -3 -10 -1 -10 4
0 6 -4 11 -10 11 -5 0 -10 -18 -10 -40z"/>
<path d="M2068 1393 c12 -2 30 -2 40 0 9 3 -1 5 -23 4 -22 0 -30 -2 -17 -4z"/>
<path d="M1061 1383 c-1 -7 -8 -13 -17 -13 -8 0 -12 -5 -8 -11 4 -8 -1 -9 -17
-4 -16 4 -20 3 -11 -3 8 -5 13 -12 12 -16 -1 -4 0 -20 4 -36 3 -20 12 -30 23
-30 11 0 14 3 7 8 -6 4 -14 21 -17 37 -3 17 -4 24 -1 18 3 -7 16 -13 29 -13
17 0 25 -6 27 -22 2 -14 11 -24 23 -26 15 -2 17 -1 6 6 -9 7 -11 19 -6 41 10
45 -2 74 -25 61 -13 -7 -20 -6 -23 3 -4 9 -6 9 -6 0z"/>
<path d="M961 1375 c0 -13 28 -50 33 -44 3 2 -4 15 -14 29 -11 14 -20 21 -19
15z"/>
<path d="M1320 1366 c0 -9 7 -12 21 -9 16 4 17 8 7 14 -19 13 -28 11 -28 -5z"/>
<path d="M1780 1320 c0 -29 5 -50 11 -50 5 0 8 4 5 9 -4 5 -2 20 3 33 9 24 14
19 24 -27 3 -11 5 -4 6 16 1 29 -3 38 -20 42 -12 3 -18 10 -14 16 3 6 1 11 -4
11 -6 0 -11 -21 -11 -50z"/>
<path d="M2340 1320 c0 -27 4 -50 10 -50 5 0 7 6 4 14 -3 8 -1 23 4 33 11 19
15 14 25 -32 3 -11 5 -3 6 18 1 31 -2 37 -20 37 -15 0 -19 5 -15 15 3 8 1 15
-4 15 -6 0 -10 -22 -10 -50z"/>
<path d="M2550 1323 c0 -49 7 -63 23 -46 4 3 2 12 -5 20 -8 10 -8 17 0 25 12
12 16 6 25 -37 3 -11 5 -3 6 18 1 26 -3 37 -14 37 -7 0 -19 8 -24 18 -8 13
-10 5 -11 -35z"/>
<path d="M2617 1362 c7 -4 14 -26 15 -47 3 -34 7 -40 28 -42 16 -1 18 0 7 4
-13 3 -18 13 -17 31 4 53 1 62 -22 62 -15 0 -19 -3 -11 -8z"/>
<path d="M2831 1321 c0 -30 2 -51 7 -47 4 4 7 16 7 27 0 28 17 28 22 0 5 -38
13 -38 13 -2 0 24 -5 34 -19 38 -11 3 -22 12 -24 22 -3 9 -5 -8 -6 -38z"/>
<path d="M3080 1355 c0 -8 -9 -15 -19 -15 -11 0 -22 -6 -25 -12 -5 -10 -7 -10
-12 0 -9 20 -52 14 -59 -8 -8 -26 11 -50 39 -49 19 0 19 1 -4 11 l-25 11 24 5
c15 2 29 -2 37 -12 6 -9 21 -16 33 -16 19 0 21 6 21 50 0 28 -2 50 -5 50 -3 0
-5 -7 -5 -15z m-75 -35 c3 -5 -1 -10 -10 -10 -9 0 -13 5 -10 10 3 6 8 10 10
10 2 0 7 -4 10 -10z m75 -21 c0 -20 -15 -26 -25 -9 -9 15 3 43 15 35 5 -3 10
-15 10 -26z"/>
<path d="M1648 1348 c-9 -28 7 -73 27 -75 11 -2 14 0 8 3 -16 7 -17 54 -2 54
6 0 4 7 -5 15 -18 18 -23 19 -28 3z"/>
<path d="M1992 1345 c-7 -9 -8 -15 -2 -15 5 0 10 -13 10 -30 0 -26 3 -30 28
-29 16 1 20 3 10 6 -20 5 -26 53 -7 53 6 0 4 7 -5 15 -18 18 -18 18 -34 0z"/>
<path d="M2145 1343 c16 -39 17 -54 5 -68 -7 -9 -10 -18 -7 -21 3 -3 13 6 22
20 15 22 15 31 5 56 -7 17 -17 30 -22 30 -6 0 -7 -8 -3 -17z"/>
<path d="M2705 1350 c3 -5 -2 -10 -12 -10 -11 0 -14 -3 -7 -8 7 -4 14 -18 15
-32 3 -18 11 -25 29 -27 14 -1 18 0 8 3 -13 4 -18 16 -18 45 0 21 -5 39 -11
39 -5 0 -7 -4 -4 -10z"/>
<path d="M2902 1345 c-7 -9 -8 -15 -2 -15 5 0 10 -13 10 -30 0 -25 4 -30 23
-29 12 0 16 3 10 6 -20 7 -16 51 5 56 16 4 16 5 0 6 -10 0 -18 6 -18 11 0 14
-13 12 -28 -5z"/>
<path d="M3125 1345 c15 -40 17 -63 6 -69 -6 -4 -11 -13 -11 -19 1 -16 40 32
40 48 0 7 -9 23 -21 36 -18 21 -20 21 -14 4z"/>
<path d="M1371 1334 c0 -11 3 -14 6 -6 3 7 2 16 -1 19 -3 4 -6 -2 -5 -13z"/>
<path d="M1713 1328 c-19 -26 -2 -58 30 -57 l22 0 -22 9 c-13 5 -23 16 -23 25
0 9 10 20 23 25 22 9 22 9 1 9 -12 1 -26 -5 -31 -11z"/>
<path d="M1929 1308 c5 -22 13 -34 26 -35 11 -2 14 0 8 3 -7 3 -13 19 -13 35
0 18 -5 29 -14 29 -10 0 -12 -8 -7 -32z"/>
<path d="M2060 1305 c0 -19 5 -35 10 -35 6 0 10 13 10 29 0 20 6 31 18 34 10
3 6 5 -10 6 -25 1 -28 -2 -28 -34z"/>
<path d="M2406 1332 c7 -4 14 -18 15 -32 3 -18 11 -25 29 -27 14 -1 18 0 8 3
-12 4 -18 15 -18 35 0 23 -4 29 -22 29 -14 0 -18 -3 -12 -8z"/>
<path d="M2480 1325 c-15 -18 -4 -55 18 -56 14 0 13 -2 -3 -10 -18 -8 -18 -8
5 -6 22 2 25 7 28 45 3 36 0 42 -16 42 -11 0 -25 -7 -32 -15z m36 -11 c-3 -9
-6 -21 -6 -27 0 -8 -3 -8 -11 0 -13 13 -5 43 12 43 6 0 8 -7 5 -16z"/>
<path d="M2755 1321 c-8 -25 4 -51 24 -52 13 0 12 -2 -4 -10 -18 -8 -18 -8 5
-6 22 2 25 7 28 45 3 39 1 42 -22 42 -15 0 -27 -7 -31 -19z m45 -10 c0 -23
-16 -36 -25 -21 -9 14 1 40 15 40 5 0 10 -9 10 -19z"/>
<path d="M1144 1308 c4 -26 18 -38 44 -37 25 2 26 2 3 6 -13 3 -26 13 -28 24
-6 21 -22 27 -19 7z"/>
<path d="M256 1264 c-4 -10 -1 -14 6 -12 15 5 23 28 10 28 -5 0 -13 -7 -16
-16z"/>
<path d="M1306 1265 c-3 -9 0 -15 9 -15 8 0 15 7 15 15 0 8 -4 15 -9 15 -5 0
-11 -7 -15 -15z"/>
<path d="M2216 1264 c-4 -10 -1 -14 6 -12 15 5 23 28 10 28 -5 0 -13 -7 -16
-16z"/>
<path d="M808 1253 c12 -2 30 -2 40 0 9 3 -1 5 -23 4 -22 0 -30 -2 -17 -4z"/>
<path d="M1858 1253 c12 -2 30 -2 40 0 9 3 -1 5 -23 4 -22 0 -30 -2 -17 -4z"/>
<path d="M310 1179 c0 -31 4 -48 10 -44 6 4 8 11 5 16 -4 5 -2 17 4 26 10 19
14 14 24 -32 3 -14 5 -11 6 9 1 19 -8 37 -24 52 l-25 23 0 -50z"/>
<path d="M521 1183 c0 -30 3 -53 9 -53 6 0 8 10 4 24 -9 37 14 41 25 4 l9 -33
1 38 c1 30 -3 37 -18 37 -11 0 -22 8 -24 18 -3 9 -5 -7 -6 -35z"/>
<path d="M587 1222 c6 -4 13 -25 15 -47 3 -35 6 -40 28 -42 14 -1 18 0 8 3
-14 4 -18 16 -18 50 0 39 -3 44 -22 44 -14 0 -18 -3 -11 -8z"/>
<path d="M800 1178 c0 -28 3 -48 8 -44 4 4 7 16 7 27 0 30 19 26 26 -7 6 -28
7 -27 8 9 1 31 -2 37 -20 37 -15 0 -19 5 -15 15 3 8 1 15 -4 15 -6 0 -10 -23
-10 -52z"/>
<path d="M1050 1215 c0 -8 -9 -15 -19 -15 -11 0 -22 -6 -24 -12 -4 -10 -8 -10
-15 0 -12 18 -42 12 -55 -10 -14 -21 7 -48 37 -47 19 0 19 1 -4 11 l-25 11 24
5 c15 2 29 -2 37 -12 6 -9 21 -16 33 -16 19 0 21 6 21 50 0 28 -2 50 -5 50 -3
0 -5 -7 -5 -15z m-75 -35 c3 -5 -1 -10 -10 -10 -9 0 -13 5 -10 10 3 6 8 10 10
10 2 0 7 -4 10 -10z m68 -33 c-9 -16 -26 12 -18 30 7 17 8 17 15 -2 4 -11 5
-24 3 -28z"/>
<path d="M1288 1223 c6 -2 12 -17 12 -33 0 -40 10 -60 29 -59 10 0 11 2 4 6
-8 3 -13 23 -13 49 0 39 -2 44 -22 43 -13 0 -17 -3 -10 -6z"/>
<path d="M1570 1179 c0 -29 4 -48 9 -44 6 3 8 14 6 25 -7 34 14 32 24 -2 l9
-33 1 32 c1 23 -5 35 -19 43 -11 6 -18 15 -15 21 4 5 1 9 -4 9 -6 0 -11 -22
-11 -51z"/>
<path d="M1743 1221 c1 -4 -9 -17 -23 -29 -22 -18 -26 -18 -36 -4 -13 18 -41
10 -50 -13 -8 -21 14 -45 40 -44 19 0 19 1 -4 11 l-25 11 23 5 c13 2 32 -4 41
-12 35 -32 51 -21 51 34 0 28 -4 50 -10 50 -5 0 -9 -4 -7 -9z m-68 -41 c3 -5
-1 -10 -10 -10 -9 0 -13 5 -10 10 3 6 8 10 10 10 2 0 7 -4 10 -10z m70 -18
c-2 -9 -4 -19 -4 -21 -1 -3 -6 0 -12 6 -13 13 -4 47 10 39 5 -4 8 -14 6 -24z"/>
<path d="M2380 1215 c0 -8 -7 -15 -16 -15 -9 0 -23 -8 -30 -17 -13 -17 -13
-17 -14 0 0 20 -30 23 -48 5 -9 -9 -15 -9 -24 0 -7 7 -20 12 -30 12 -15 0 -18
-9 -18 -50 l0 -49 26 24 c29 27 40 30 49 15 3 -5 16 -10 28 -9 l22 0 -22 9
c-31 13 -29 20 7 20 20 0 30 -5 30 -15 0 -9 9 -15 25 -15 23 0 25 3 25 50 0
28 -2 50 -5 50 -3 0 -5 -7 -5 -15z m-144 -61 c-4 -12 -10 -14 -17 -7 -5 5 -7
17 -3 27 4 12 10 14 17 7 5 -5 7 -17 3 -27z m69 26 c3 -5 -1 -10 -10 -10 -9 0
-13 5 -10 10 3 6 8 10 10 10 2 0 7 -4 10 -10z m71 -37 c-12 -12 -29 15 -21 34
7 17 8 16 18 -5 5 -12 7 -25 3 -29z"/>
<path d="M2617 1222 c6 -4 13 -25 15 -47 3 -35 6 -40 28 -42 14 -1 18 0 8 3
-14 4 -18 16 -18 50 0 39 -3 44 -22 44 -14 0 -18 -3 -11 -8z"/>
<path d="M2901 1183 c0 -29 3 -53 7 -53 4 0 8 10 7 23 0 34 19 35 26 1 l7 -29
1 33 c1 26 -4 35 -18 39 -11 3 -22 12 -24 22 -3 9 -5 -8 -6 -36z"/>
<path d="M3080 1215 c0 -8 -5 -15 -12 -15 -6 0 -20 -7 -30 -17 -17 -15 -18
-15 -18 0 0 21 -33 22 -50 2 -19 -23 -3 -55 28 -54 l27 0 -25 11 -25 11 24 5
c15 2 29 -2 37 -12 6 -9 21 -16 33 -16 19 0 21 6 21 50 0 28 -2 50 -5 50 -3 0
-5 -7 -5 -15z m-75 -35 c3 -5 -1 -10 -10 -10 -9 0 -13 5 -10 10 3 6 8 10 10
10 2 0 7 -4 10 -10z m71 -37 c-12 -12 -29 15 -21 34 7 17 8 16 18 -5 5 -12 7
-25 3 -29z"/>
<path d="M3317 1222 c6 -4 13 -25 15 -46 2 -31 8 -41 28 -47 22 -8 23 -8 8 5
-12 9 -18 27 -18 55 0 36 -3 41 -22 41 -14 0 -18 -3 -11 -8z"/>
<path d="M3500 1215 c0 -8 -9 -15 -19 -15 -11 0 -22 -6 -24 -12 -4 -9 -8 -10
-14 -2 -4 6 -19 13 -33 16 -21 4 -25 0 -27 -21 -2 -33 13 -51 41 -50 21 0 21
0 -1 9 -31 13 -29 20 7 20 19 0 29 -5 28 -12 -2 -8 9 -14 25 -16 26 -3 27 -2
27 47 0 28 -2 51 -5 51 -3 0 -5 -7 -5 -15z m-75 -35 c3 -5 -1 -10 -10 -10 -9
0 -13 5 -10 10 3 6 8 10 10 10 2 0 7 -4 10 -10z m70 -19 c4 -22 -9 -29 -20
-11 -7 12 2 46 11 38 2 -3 6 -15 9 -27z"/>
<path d="M256 1198 c-9 -12 -16 -28 -16 -34 0 -16 39 -62 40 -47 0 6 -4 15
-10 18 -14 8 -13 48 2 63 6 6 9 14 6 17 -3 4 -13 -4 -22 -17z"/>
<path d="M872 1205 c-7 -9 -8 -15 -2 -15 5 0 10 -13 10 -30 0 -26 3 -30 28
-29 16 1 20 3 10 6 -20 5 -26 53 -7 53 6 0 4 7 -5 15 -18 18 -18 18 -34 0z"/>
<path d="M1438 1209 c-2 -6 -2 -26 0 -45 4 -29 8 -34 31 -33 17 1 20 3 9 6
-20 5 -26 53 -7 53 6 0 4 7 -5 15 -17 18 -23 19 -28 4z"/>
<path d="M2768 1208 c-2 -7 -2 -26 1 -43 5 -23 12 -30 31 -32 15 -1 18 0 8 3
-19 6 -26 54 -7 54 6 0 4 7 -5 15 -18 18 -23 19 -28 3z"/>
<path d="M3188 1209 c-2 -6 -2 -26 0 -45 4 -29 8 -34 31 -33 17 1 20 3 9 6
-20 5 -26 53 -7 53 6 0 4 7 -5 15 -17 18 -23 19 -28 4z"/>
<path d="M3543 1202 c19 -21 22 -57 7 -67 -5 -3 -10 -11 -10 -16 0 -17 21 2
31 28 10 27 -10 73 -33 73 -6 0 -4 -8 5 -18z"/>
<path d="M729 1189 c-13 -25 -2 -59 19 -60 14 0 13 -2 -3 -10 -18 -8 -18 -8 5
-6 22 2 25 7 28 43 3 35 0 42 -18 47 -14 3 -24 -1 -31 -14z m37 -35 c-5 -13
-10 -14 -18 -6 -6 6 -8 18 -4 28 5 13 10 14 18 6 6 -6 8 -18 4 -28z"/>
<path d="M2013 1202 c-19 -3 -23 -10 -23 -38 0 -19 5 -34 10 -34 6 0 10 14 10
30 0 23 5 30 19 30 12 0 21 -8 23 -21 5 -34 34 -47 55 -26 23 22 6 52 -28 52
-13 0 -28 2 -34 6 -5 3 -20 3 -32 1z m85 -39 c-4 -22 -22 -20 -26 1 -2 10 3
16 13 16 10 0 15 -7 13 -17z"/>
<path d="M388 1169 c5 -35 25 -47 47 -29 10 9 15 9 15 1 0 -6 8 -11 18 -12 14
0 14 -2 -3 -9 -18 -8 -17 -9 8 -9 26 -1 27 1 27 44 0 38 -3 45 -20 45 -12 0
-26 -12 -35 -30 -9 -16 -20 -30 -25 -30 -6 0 -10 14 -10 30 0 18 -5 30 -13 30
-9 0 -12 -10 -9 -31z m95 -10 c-4 -13 -9 -17 -16 -10 -12 12 -1 45 12 37 5 -3
7 -15 4 -27z"/>
<path d="M657 1192 c7 -5 14 -20 15 -35 2 -20 8 -27 22 -27 16 0 17 3 8 12 -7
7 -12 22 -12 35 0 17 -6 23 -22 23 -15 0 -19 -3 -11 -8z"/>
<path d="M1217 1179 c-8 -28 2 -49 22 -50 13 0 12 -2 -4 -10 -18 -8 -18 -8 5
-6 22 2 25 7 28 45 3 39 1 42 -21 42 -17 0 -26 -7 -30 -21z m36 -32 c-9 -16
-26 12 -18 30 7 17 8 17 15 -2 4 -11 5 -24 3 -28z"/>
<path d="M1356 1192 c7 -4 14 -18 15 -32 3 -16 11 -26 24 -27 11 -2 14 0 8 3
-7 3 -13 19 -13 35 0 23 -4 29 -22 29 -14 0 -18 -3 -12 -8z"/>
<path d="M1496 1174 c3 -33 13 -44 37 -43 l22 0 -22 11 c-13 6 -23 17 -23 25
0 7 10 18 23 23 20 8 19 9 -9 8 -26 -2 -30 -6 -28 -24z"/>
<path d="M1921 1186 c-19 -23 3 -56 37 -55 21 1 22 2 7 6 -19 5 -34 20 -35 34
0 3 10 11 23 17 22 11 22 11 1 11 -12 1 -27 -5 -33 -13z"/>
<path d="M2131 1153 c0 -27 3 -42 6 -35 2 6 10 12 18 12 20 0 37 27 30 50 -4
13 -15 20 -31 20 -22 0 -24 -4 -23 -47z m35 2 c-8 -21 -25 -11 -21 13 2 9 4
19 4 22 1 2 6 -1 12 -7 7 -7 9 -19 5 -28z"/>
<path d="M2544 1178 c-5 -16 -1 -27 16 -40 20 -16 20 -18 4 -18 -15 0 -16 -2
-5 -9 26 -17 41 -1 41 45 0 40 -2 44 -24 44 -17 0 -27 -7 -32 -22z m43 -8 c2
-23 -12 -35 -22 -20 -8 13 1 40 13 40 4 0 8 -9 9 -20z"/>
<path d="M2686 1192 c6 -4 14 -19 18 -34 4 -17 13 -28 23 -28 13 0 14 3 5 12
-7 7 -12 22 -12 35 0 17 -6 23 -22 23 -13 0 -18 -3 -12 -8z"/>
<path d="M2831 1182 c-14 -26 5 -52 37 -51 l27 1 -25 7 c-33 9 -37 35 -8 49
l23 11 -22 0 c-12 1 -27 -7 -32 -17z"/>
<path d="M3260 1171 c4 -16 6 -32 2 -35 -3 -3 5 -6 18 -6 19 0 21 3 12 12 -7
7 -12 22 -12 35 0 13 -6 23 -14 23 -11 0 -13 -7 -6 -29z"/>
<path d="M1096 1125 c-3 -9 0 -15 9 -15 8 0 15 7 15 15 0 8 -4 15 -9 15 -5 0
-11 -7 -15 -15z"/>
<path d="M1796 1124 c-4 -10 -1 -14 6 -12 15 5 23 28 10 28 -5 0 -13 -7 -16
-16z"/>
<path d="M2423 1125 c0 -8 6 -15 14 -15 7 0 13 7 13 15 0 8 -6 15 -13 15 -8 0
-14 -7 -14 -15z"/>
<path d="M3118 1113 c12 -2 30 -2 40 0 9 3 -1 5 -23 4 -22 0 -30 -2 -17 -4z"/>
<path d="M383 760 c0 -33 2 -42 4 -22 5 40 25 38 34 -4 l7 -29 1 33 c1 26 -4
35 -18 39 -11 3 -22 12 -24 22 -3 9 -4 -9 -4 -39z"/>
<path d="M630 796 c0 -7 -9 -16 -21 -19 -30 -8 -23 -61 9 -65 20 -3 22 0 22
47 0 28 -2 51 -5 51 -3 0 -5 -6 -5 -14z m0 -51 c0 -26 -14 -33 -25 -15 -9 14
1 40 15 40 5 0 10 -11 10 -25z"/>
<path d="M1515 793 c-6 -10 -8 -34 -4 -53 5 -29 7 -31 9 -10 1 14 2 28 1 33 0
4 7 7 17 7 14 0 15 2 2 10 -13 9 -13 11 0 20 13 9 13 10 0 10 -8 0 -20 -8 -25
-17z"/>
<path d="M1853 760 c0 -31 2 -41 4 -22 3 18 10 32 18 32 8 0 15 -14 18 -32 l4
-33 1 33 c2 26 -3 35 -17 39 -11 3 -22 12 -24 22 -3 9 -4 -9 -4 -39z"/>
<path d="M2102 799 c-1 -9 -11 -19 -22 -22 -28 -7 -27 -53 1 -62 28 -9 31 -4
26 51 -2 27 -4 42 -5 33z m-2 -54 c0 -26 -14 -33 -25 -15 -9 14 1 40 15 40 5
0 10 -11 10 -25z"/>
<path d="M2693 760 c0 -33 2 -42 4 -22 5 40 25 38 34 -4 l7 -29 1 33 c1 26 -4
35 -18 39 -11 3 -22 12 -24 22 -3 9 -4 -9 -4 -39z"/>
<path d="M3042 760 c0 -30 2 -47 5 -37 5 18 6 18 24 1 11 -10 19 -12 19 -6 0
7 -5 12 -11 12 -7 0 -9 10 -5 28 6 25 5 25 -6 7 -12 -19 -13 -18 -19 15 -5 29
-6 26 -7 -20z"/>
<path d="M323 788 c-14 -18 4 -78 23 -78 14 0 14 2 0 16 -21 20 -20 41 2 47
16 4 16 5 -1 6 -10 0 -15 6 -12 11 9 14 -1 12 -12 -2z"/>
<path d="M2628 788 c-9 -27 7 -73 27 -76 16 -3 17 -1 5 7 -21 14 -21 51 -1 52
13 0 14 1 1 6 -8 3 -18 10 -21 15 -3 5 -8 4 -11 -4z"/>
<path d="M3188 785 c-3 -3 -2 -20 1 -38 5 -21 13 -33 26 -35 16 -2 17 -1 6 7
-22 15 -24 51 -3 51 14 0 15 2 2 10 -17 11 -24 12 -32 5z"/>
<path d="M174 766 c-11 -28 0 -51 26 -53 l25 -3 -25 12 -25 11 23 5 c15 2 22
9 20 20 -4 22 -36 28 -44 8z m36 -6 c0 -5 -7 -10 -15 -10 -8 0 -15 5 -15 10 0
6 7 10 15 10 8 0 15 -4 15 -10z"/>
<path d="M457 774 c-4 -4 -7 -20 -7 -36 0 -24 4 -28 28 -27 23 2 24 2 5 6 -29
6 -30 23 -2 23 14 0 19 5 17 17 -3 19 -29 29 -41 17z m33 -14 c0 -5 -7 -10
-16 -10 -8 0 -12 5 -9 10 3 6 10 10 16 10 5 0 9 -4 9 -10z"/>
<path d="M667 773 c-11 -10 -8 -33 4 -33 5 0 7 5 4 10 -3 6 4 14 17 19 22 9
22 10 2 10 -11 1 -24 -2 -27 -6z"/>
<path d="M742 771 c-21 -13 -11 -56 13 -57 15 -1 16 0 3 3 -25 6 -22 23 3 23
14 0 19 5 17 17 -4 20 -18 26 -36 14z m28 -11 c0 -5 -7 -10 -16 -10 -8 0 -12
5 -9 10 3 6 10 10 16 10 5 0 9 -4 9 -10z"/>
<path d="M800 766 c0 -7 10 -21 23 -30 l22 -17 -22 5 c-13 2 -23 0 -23 -5 0
-13 38 -11 46 2 4 7 -3 20 -17 29 l-23 18 25 5 c23 4 23 4 -3 6 -18 0 -28 -4
-28 -13z"/>
<path d="M874 768 c-4 -6 0 -16 9 -23 18 -13 24 -31 8 -20 -5 3 -12 1 -16 -5
-3 -5 3 -10 14 -10 31 0 36 21 10 40 l-23 18 25 5 c22 4 22 4 2 6 -12 0 -25
-4 -29 -11z"/>
<path d="M1011 733 c0 -26 3 -42 6 -35 2 6 14 12 24 12 17 0 20 6 17 33 -2 24
-8 33 -25 35 -21 3 -23 0 -22 -45z m37 15 c-2 -13 -7 -23 -13 -23 -5 0 -11 10
-13 23 -2 15 2 22 13 22 11 0 15 -7 13 -22z"/>
<path d="M1088 773 c6 -2 12 -18 12 -34 0 -21 5 -29 18 -28 10 0 12 3 5 6 -7
2 -13 18 -13 34 0 21 -5 29 -17 28 -11 0 -13 -3 -5 -6z"/>
<path d="M1155 770 c-17 -28 -13 -50 11 -56 14 -4 28 -4 31 0 4 3 -3 6 -15 6
-32 0 -27 18 6 23 l27 4 -28 2 c-16 0 -26 5 -22 11 3 5 13 6 22 3 11 -4 14 -3
9 5 -9 15 -33 16 -41 2z"/>
<path d="M1224 766 c-11 -28 1 -51 26 -53 22 -1 22 -1 3 4 -15 3 -23 12 -23
24 0 11 10 24 23 29 l22 9 -23 0 c-12 1 -25 -5 -28 -13z"/>
<path d="M1291 762 c-14 -26 8 -56 35 -49 17 4 16 5 -3 6 -29 1 -30 21 -2 21
14 0 19 5 17 17 -5 25 -35 28 -47 5z m39 -2 c0 -5 -7 -10 -16 -10 -8 0 -12 5
-9 10 3 6 10 10 16 10 5 0 9 -4 9 -10z"/>
<path d="M1365 770 c-8 -14 3 -30 21 -30 8 0 14 -5 14 -11 0 -6 -9 -9 -20 -6
-11 3 -20 1 -20 -4 0 -5 11 -9 25 -9 32 0 33 25 3 42 l-23 12 25 7 c23 6 23 7
3 8 -12 1 -25 -3 -28 -9z"/>
<path d="M1574 766 c-10 -26 1 -51 24 -54 19 -3 22 1 22 32 0 30 -4 36 -20 36
-11 0 -23 -6 -26 -14z m36 -22 c0 -31 -23 -28 -28 4 -2 15 2 22 12 22 11 0 16
-9 16 -26z"/>
<path d="M1649 778 c-5 -16 -3 -61 3 -64 4 -3 8 8 8 25 0 20 6 31 18 34 13 4
11 5 -5 6 -13 0 -23 0 -24 -1z"/>
<path d="M1789 748 c5 -22 13 -34 26 -36 16 -2 17 -1 6 7 -22 14 -24 49 -3 54
11 3 7 5 -9 6 -25 1 -26 -1 -20 -31z"/>
<path d="M1918 762 c-8 -27 9 -52 35 -51 21 0 21 1 -3 11 l-25 11 23 5 c29 5
26 36 -4 40 -14 2 -23 -3 -26 -16z m37 -2 c3 -5 -1 -10 -9 -10 -9 0 -16 5 -16
10 0 6 4 10 9 10 6 0 13 -4 16 -10z"/>
<path d="M2136 764 c-9 -23 -7 -34 4 -34 6 0 10 9 10 19 0 11 8 22 18 24 13 4
12 5 -4 6 -12 0 -25 -6 -28 -15z"/>
<path d="M2204 766 c-11 -28 0 -51 26 -53 22 -1 22 -1 3 4 -29 6 -30 23 -2 23
14 0 19 5 17 17 -4 23 -36 29 -44 9z m36 -6 c0 -5 -7 -10 -16 -10 -8 0 -12 5
-9 10 3 6 10 10 16 10 5 0 9 -4 9 -10z"/>
<path d="M2275 770 c-8 -14 3 -30 21 -30 23 0 16 -20 -8 -21 -19 -1 -20 -2 -4
-6 28 -7 45 15 24 31 -10 7 -18 16 -18 19 0 3 8 8 18 10 13 4 12 5 -5 6 -12 0
-25 -3 -28 -9z"/>
<path d="M2345 770 c-4 -6 4 -20 17 -31 l23 -21 -22 5 c-13 3 -23 1 -23 -4 0
-13 38 -11 46 3 4 6 -1 17 -12 25 -16 12 -17 15 -4 23 13 8 13 10 -2 10 -9 0
-20 -5 -23 -10z"/>
<path d="M2518 755 c-9 -19 -9 -28 0 -37 9 -9 12 -4 12 21 0 26 4 32 18 29 10
-2 18 -14 20 -31 2 -18 9 -27 20 -26 11 0 12 3 5 6 -7 2 -13 18 -13 34 0 24
-4 29 -25 29 -17 0 -29 -8 -37 -25z"/>
<path d="M2830 733 c0 -26 4 -43 8 -37 4 6 15 13 25 17 27 10 19 61 -10 65
-21 3 -23 -1 -23 -45z m38 15 c-4 -27 -28 -36 -28 -10 0 20 8 32 22 32 5 0 8
-10 6 -22z"/>
<path d="M2903 768 c-16 -19 3 -60 24 -56 24 4 25 61 2 66 -9 1 -21 -3 -26
-10z m32 -21 c0 -26 -20 -25 -23 2 -3 16 1 22 10 19 7 -3 13 -12 13 -21z"/>
<path d="M2974 766 c-11 -28 1 -51 26 -53 25 -3 25 -3 3 7 -13 5 -23 16 -23
25 0 9 10 20 23 25 l22 9 -23 0 c-12 1 -25 -5 -28 -13z"/>
<path d="M3117 774 c-4 -4 -7 -20 -7 -36 0 -24 4 -28 28 -27 23 2 24 2 5 6
-29 6 -30 23 -2 23 14 0 19 5 17 17 -3 19 -29 29 -41 17z m33 -14 c0 -5 -7
-10 -15 -10 -8 0 -15 5 -15 10 0 6 7 10 15 10 8 0 15 -4 15 -10z"/>
<path d="M3255 770 c-8 -14 3 -30 21 -30 8 0 12 -5 9 -11 -4 -6 -14 -8 -22 -5
-8 3 -11 1 -8 -4 8 -14 32 -13 41 2 4 6 0 16 -9 23 -22 16 -21 22 1 28 13 4
12 5 -5 6 -12 0 -25 -3 -28 -9z"/>
<path d="M3397 773 c-13 -13 -7 -54 9 -60 24 -9 46 24 33 48 -10 19 -30 25
-42 12z m33 -22 c0 -23 -16 -36 -25 -21 -9 14 1 40 15 40 5 0 10 -9 10 -19z"/>
<path d="M3458 773 c-3 -4 -1 -21 3 -38 l7 -30 1 33 c1 41 23 39 33 -4 6 -27
6 -27 5 6 -2 28 -7 36 -24 38 -11 2 -23 0 -25 -5z"/>
<path d="M3604 766 c-11 -28 1 -51 26 -53 25 -3 25 -3 3 7 -13 5 -23 16 -23
25 0 9 10 20 23 25 l22 9 -23 0 c-12 1 -25 -5 -28 -13z"/>
<path d="M3674 766 c-10 -26 0 -51 21 -51 16 0 20 7 20 30 0 33 -30 49 -41 21z
m34 -24 c2 -15 -2 -22 -12 -22 -11 0 -16 9 -16 26 0 31 23 28 28 -4z"/>
<path d="M3741 745 c0 -36 1 -38 13 -22 13 16 14 16 20 1 8 -21 11 -17 20 20
6 26 5 28 -8 17 -13 -11 -16 -11 -16 0 0 12 -2 12 -9 0 -7 -11 -10 -10 -14 5
-2 10 -5 1 -6 -21z"/>
<path d="M3814 756 c-8 -32 2 -46 29 -45 l22 0 -22 9 c-13 5 -23 16 -23 25 0
9 10 20 23 25 l22 9 -22 0 c-16 1 -24 -6 -29 -23z"/>
<path d="M3882 748 c4 -44 34 -50 50 -11 l11 28 7 -30 c6 -25 8 -27 15 -12 7
16 8 17 20 1 11 -15 13 -14 17 14 4 25 2 29 -9 21 -10 -9 -13 -8 -13 2 0 12
-2 12 -9 0 -7 -11 -11 -10 -20 5 -7 13 -10 15 -11 5 0 -12 -3 -12 -12 -3 -7 7
-20 12 -31 12 -15 0 -18 -6 -15 -32z m38 -9 c0 -10 -7 -19 -15 -19 -15 0 -21
31 -9 43 11 10 24 -3 24 -24z"/>
<path d="M2481 741 c-1 -38 12 -33 24 9 4 17 3 21 -3 11 -8 -11 -10 -11 -15 0
-3 8 -6 -2 -6 -20z"/>
<path d="M660 720 c0 -5 5 -10 10 -10 6 0 10 5 10 10 0 6 -4 10 -10 10 -5 0
-10 -4 -10 -10z"/>
<path d="M1993 620 c0 -33 2 -42 4 -22 5 40 25 38 34 -4 l7 -29 1 33 c1 26 -4
35 -18 39 -11 3 -22 12 -24 22 -3 9 -4 -9 -4 -39z"/>
<path d="M248 647 c-9 -27 7 -72 27 -75 12 -2 16 0 9 5 -19 14 -24 42 -9 50
12 7 11 11 -4 20 -15 9 -20 9 -23 0z"/>
<path d="M460 652 c0 -6 5 -14 11 -18 7 -4 9 -21 6 -40 -4 -21 -2 -32 4 -29
15 10 10 71 -6 85 -9 8 -15 9 -15 2z"/>
<path d="M743 653 c-7 -3 -13 -9 -13 -14 0 -6 5 -7 10 -4 6 4 10 -5 10 -20 0
-14 4 -24 9 -20 9 5 9 51 0 59 -2 2 -10 1 -16 -1z"/>
<path d="M825 650 c-3 -5 -1 -19 5 -30 9 -16 8 -20 -4 -20 -10 0 -13 6 -9 17
4 11 3 14 -5 9 -14 -8 -16 -36 -3 -36 5 0 17 -3 26 -6 13 -5 15 0 13 35 -3 40
-11 51 -23 31z"/>
<path d="M876 648 c-3 -7 -4 -26 -3 -43 2 -23 7 -31 24 -33 21 -3 23 0 20 40
-1 32 -7 44 -20 46 -9 2 -19 -2 -21 -10z m26 -13 c0 -5 -5 -11 -11 -13 -6 -2
-11 4 -11 13 0 9 5 15 11 13 6 -2 11 -8 11 -13z m8 -40 c0 -8 -7 -15 -15 -15
-8 0 -15 7 -15 15 0 8 7 15 15 15 8 0 15 -7 15 -15z"/>
<path d="M957 653 c21 -4 21 -6 7 -40 -8 -19 -13 -37 -10 -40 5 -5 36 62 36
78 0 5 -12 8 -27 8 -23 -1 -24 -3 -6 -6z"/>
<path d="M1230 628 c-19 -31 -19 -33 -2 -37 9 -2 20 -8 25 -15 5 -8 10 -7 16
4 6 8 6 17 2 20 -4 3 -7 15 -6 28 3 36 -13 36 -35 0z m16 -25 c-11 -11 -17 4
-9 23 7 18 8 18 11 1 2 -10 1 -21 -2 -24z"/>
<path d="M1308 653 c16 -3 20 -8 14 -16 -5 -7 -12 -25 -15 -42 -6 -26 -4 -25
13 10 25 53 24 55 -7 54 -25 -2 -25 -2 -5 -6z"/>
<path d="M1367 654 c-4 -4 -7 -18 -7 -30 0 -16 7 -24 23 -27 22 -4 22 -4 -3
-15 -14 -6 -18 -11 -10 -11 29 -1 42 16 38 50 -3 32 -24 49 -41 33z m33 -24
c0 -11 -7 -20 -15 -20 -8 0 -15 9 -15 20 0 11 7 20 15 20 8 0 15 -9 15 -20z"/>
<path d="M1441 646 c-20 -24 -10 -70 17 -74 18 -3 22 1 22 22 0 14 -8 30 -17
35 -16 9 -16 12 -3 21 8 5 10 10 4 10 -6 0 -17 -6 -23 -14z m27 -50 c3 -12 -1
-17 -10 -14 -7 3 -15 13 -16 22 -3 12 1 17 10 14 7 -3 15 -13 16 -22z"/>
<path d="M1783 615 c0 -27 2 -40 4 -27 5 27 33 29 33 2 0 -11 3 -20 8 -20 4 0
5 21 3 48 -3 26 -7 37 -9 25 -2 -13 -10 -23 -17 -23 -7 0 -16 10 -18 23 -2 12
-4 0 -4 -28z"/>
<path d="M172 603 c1 -37 1 -37 5 -5 6 42 30 42 36 0 l5 -33 -2 35 c-1 28 -5
36 -23 38 -21 3 -23 -1 -21 -35z"/>
<path d="M314 626 c-11 -28 0 -51 26 -53 l25 -3 -25 12 -25 11 23 5 c15 2 22
9 20 20 -4 22 -36 28 -44 8z m36 -6 c0 -5 -7 -10 -15 -10 -8 0 -15 5 -15 10 0
6 7 10 15 10 8 0 15 -4 15 -10z"/>
<path d="M386 614 c-4 -15 -2 -32 3 -37 8 -8 11 -2 11 20 0 22 6 33 18 36 13
4 12 5 -4 6 -16 1 -24 -7 -28 -25z"/>
<path d="M1089 623 c7 -14 8 -24 1 -28 -5 -3 -10 -11 -10 -18 0 -8 3 -8 12 1
8 8 15 9 25 1 16 -14 18 2 2 18 -8 8 -8 13 0 17 6 4 11 12 11 18 0 7 -4 7 -13
-1 -10 -8 -17 -7 -26 2 -11 10 -11 8 -2 -10z"/>
<path d="M1598 628 c7 -7 12 -20 12 -30 0 -24 -28 -12 -34 15 -2 14 -4 10 -3
-8 2 -23 7 -31 25 -33 19 -3 22 1 22 32 0 27 -4 36 -17 36 -13 0 -14 -3 -5
-12z"/>
<path d="M1646 624 c-9 -24 -7 -54 4 -54 6 0 10 13 10 29 0 20 6 31 18 34 13
4 12 5 -4 6 -12 0 -25 -6 -28 -15z"/>
<path d="M1858 633 c6 -2 12 -18 12 -34 0 -21 5 -29 18 -28 10 0 12 3 5 6 -7
2 -13 18 -13 34 0 21 -5 29 -17 28 -11 0 -13 -3 -5 -6z"/>
<path d="M1918 617 c-6 -33 1 -47 25 -48 20 -1 20 -2 -3 -10 l-25 -8 25 2 c22
2 25 7 28 45 3 39 1 42 -21 42 -18 0 -26 -6 -29 -23z m42 -12 c0 -16 -6 -25
-15 -25 -9 0 -15 9 -15 25 0 16 6 25 15 25 9 0 15 -9 15 -25z"/>
<path d="M2072 631 c-23 -14 -10 -56 18 -58 l25 -3 -25 12 -25 11 23 5 c15 2
22 9 20 19 -4 20 -19 26 -36 14z m23 -11 c3 -5 -1 -10 -10 -10 -9 0 -13 5 -10
10 3 6 8 10 10 10 2 0 7 -4 10 -10z"/>
<path d="M2133 610 c-1 -17 2 -30 7 -30 6 0 10 11 10 24 0 15 7 26 18 29 11 3
9 5 -8 6 -21 1 -25 -4 -27 -29z"/>
<path d="M748 573 c6 -2 18 -2 25 0 6 3 1 5 -13 5 -14 0 -19 -2 -12 -5z"/>
<path d="M185 513 c-12 -21 -8 -86 5 -78 4 3 6 14 3 25 -3 13 1 22 12 26 13 5
14 9 3 15 -11 7 -10 11 2 19 13 9 13 10 0 10 -8 0 -20 -8 -25 -17z"/>
<path d="M2343 480 c0 -33 2 -42 4 -22 5 40 25 38 34 -4 6 -27 7 -27 8 9 1 30
-2 37 -18 37 -11 0 -22 8 -24 18 -3 9 -4 -8 -4 -38z"/>
<path d="M242 504 c-7 -8 -8 -14 -3 -14 5 0 11 -12 13 -27 2 -19 10 -29 23
-31 16 -2 17 -1 6 7 -22 15 -24 51 -3 52 13 0 14 2 2 6 -8 3 -17 9 -20 13 -3
4 -11 2 -18 -6z"/>
<path d="M331 502 c-16 -29 -14 -67 4 -82 9 -8 15 -9 15 -2 0 6 -4 14 -10 17
-14 8 -13 48 2 63 6 6 9 14 6 18 -4 3 -11 -3 -17 -14z"/>
<path d="M387 513 c-4 -3 -7 -21 -7 -39 0 -31 14 -45 43 -43 7 0 2 4 -10 9
-16 6 -23 18 -23 35 0 17 7 29 23 35 21 8 21 9 1 9 -11 1 -24 -2 -27 -6z"/>
<path d="M603 509 c-16 -16 0 -73 22 -78 17 -3 18 -2 2 14 -21 20 -21 31 -3
42 11 6 11 10 1 20 -8 7 -16 8 -22 2z"/>
<path d="M810 513 c0 -6 5 -15 10 -18 6 -3 10 -17 10 -30 0 -13 -4 -27 -10
-30 -5 -3 -10 -12 -10 -18 1 -21 30 26 30 48 0 22 -29 69 -30 48z"/>
<path d="M1098 514 c-4 -3 -4 -20 -1 -36 4 -20 1 -33 -8 -39 -10 -6 -5 -9 16
-9 21 0 26 3 18 11 -6 6 -9 17 -7 23 6 16 -10 59 -18 50z"/>
<path d="M1154 507 c-3 -9 -4 -28 -2 -44 2 -20 8 -28 23 -28 17 0 20 7 20 40
0 30 -4 41 -18 43 -9 2 -20 -3 -23 -11z m36 -38 c0 -20 -4 -29 -12 -27 -15 5
-22 33 -14 54 9 24 26 6 26 -27z"/>
<path d="M1224 503 c0 -10 9 -21 19 -25 23 -10 22 -36 -3 -41 -17 -4 -16 -4 2
-3 28 1 38 43 14 52 -21 8 -20 21 2 27 11 3 8 5 -9 6 -20 1 -26 -4 -25 -16z"/>
<path d="M1295 510 c-3 -6 1 -7 9 -4 11 4 16 0 16 -10 0 -9 -5 -16 -12 -16 -6
0 -3 -6 8 -14 18 -14 18 -15 -6 -25 l-25 -11 25 3 c20 2 25 8 26 32 1 17 -1
36 -3 43 -6 14 -29 16 -38 2z"/>
<path d="M1594 511 c4 -6 1 -11 -6 -12 -7 0 -6 -3 4 -7 13 -5 15 -11 8 -22 -9
-13 -11 -13 -20 0 -8 13 -10 12 -10 -2 0 -10 7 -18 15 -18 8 0 15 -6 15 -12 0
-7 5 -5 11 5 14 23 8 69 -10 75 -8 3 -11 0 -7 -7z"/>
<path d="M1657 513 c22 -4 22 -6 8 -33 -8 -16 -15 -35 -15 -42 1 -15 24 26 34
60 7 19 4 22 -21 21 -23 -1 -24 -2 -6 -6z"/>
<path d="M1716 508 c-3 -7 -4 -26 -3 -43 2 -23 7 -30 22 -30 17 0 20 7 20 40
0 30 -4 41 -18 43 -9 2 -19 -2 -21 -10z m32 -10 c-6 -18 -28 -21 -28 -4 0 9 7
16 16 16 9 0 14 -5 12 -12z m2 -43 c0 -8 -7 -15 -15 -15 -8 0 -15 7 -15 15 0
8 7 15 15 15 8 0 15 -7 15 -15z"/>
<path d="M1782 503 c-14 -27 0 -68 23 -68 17 0 20 7 20 40 0 44 -26 61 -43 28z
m33 -28 c0 -16 -6 -30 -12 -32 -9 -3 -13 7 -13 32 0 25 4 35 13 33 6 -3 12
-17 12 -33z"/>
<path d="M2133 480 c-1 -25 1 -37 4 -27 7 25 33 21 34 -5 0 -21 1 -21 8 -4 4
10 5 33 2 50 -4 25 -6 27 -9 9 -2 -13 -10 -23 -17 -23 -7 0 -16 10 -18 23 -2
12 -4 2 -4 -23z"/>
<path d="M454 486 c-11 -28 0 -51 26 -53 22 -1 22 -1 3 4 -29 6 -30 23 -2 23
14 0 19 5 17 17 -4 23 -36 29 -44 9z m36 -6 c0 -5 -7 -10 -16 -10 -8 0 -12 5
-9 10 3 6 10 10 16 10 5 0 9 -4 9 -10z"/>
<path d="M522 463 c1 -37 1 -37 5 -5 3 18 10 32 18 32 8 0 16 -14 18 -32 l5
-33 -2 35 c-1 28 -5 36 -23 38 -21 3 -23 -1 -21 -35z"/>
<path d="M664 486 c-11 -28 0 -51 26 -53 l25 -3 -25 12 -25 11 23 5 c15 2 22
9 20 20 -4 22 -36 28 -44 8z m36 -6 c0 -5 -7 -10 -15 -10 -8 0 -15 5 -15 10 0
6 7 10 15 10 8 0 15 -4 15 -10z"/>
<path d="M736 491 c-9 -13 -3 -61 7 -61 4 0 7 8 6 18 -3 31 1 40 19 45 13 4
12 5 -5 6 -12 0 -24 -3 -27 -8z"/>
<path d="M1434 465 c0 -23 3 -32 10 -25 6 6 14 6 21 0 8 -6 11 1 11 25 0 24
-3 31 -11 25 -7 -6 -15 -6 -21 0 -7 7 -10 -2 -10 -25z"/>
<path d="M1924 486 c-10 -26 0 -51 21 -51 16 0 20 7 20 30 0 33 -30 49 -41 21z
m34 -24 c2 -15 -2 -22 -12 -22 -11 0 -16 9 -16 26 0 31 23 28 28 -4z"/>
<path d="M1999 498 c-6 -12 -3 -58 4 -58 5 0 7 11 5 24 -4 19 0 26 16 29 20 4
20 4 -1 6 -13 0 -24 0 -24 -1z"/>
<path d="M2208 488 c7 -7 12 -22 12 -35 0 -16 6 -23 18 -22 10 0 12 3 5 6 -7
2 -13 18 -13 34 0 21 -5 29 -17 29 -13 0 -14 -3 -5 -12z"/>
<path d="M2272 488 c-14 -18 3 -58 25 -59 13 -1 11 -4 -7 -10 l-25 -8 25 2
c22 2 25 7 28 45 3 36 0 42 -16 42 -11 0 -24 -6 -30 -12z m38 -23 c0 -16 -6
-25 -15 -25 -9 0 -15 9 -15 25 0 16 6 25 15 25 9 0 15 -9 15 -25z"/>
<path d="M2411 481 c-14 -25 8 -55 35 -48 17 4 16 5 -3 6 -28 1 -31 21 -3 21
13 0 20 7 20 20 0 26 -36 27 -49 1z m39 -1 c0 -5 -7 -10 -15 -10 -8 0 -15 5
-15 10 0 6 7 10 15 10 8 0 15 -4 15 -10z"/>
<path d="M2489 498 c-7 -28 -7 -68 1 -63 6 3 10 17 10 30 0 14 7 25 18 28 13
4 11 5 -5 6 -13 0 -23 0 -24 -1z"/>
<path d="M243 340 c0 -31 2 -41 4 -22 3 18 10 32 18 32 8 0 15 -14 18 -32 4
-32 4 -32 5 5 2 30 -1 37 -17 37 -11 0 -22 8 -24 18 -3 9 -4 -8 -4 -38z"/>
<path d="M2413 340 c0 -31 2 -41 4 -22 3 18 10 32 18 32 8 0 15 -14 18 -32 l4
-33 1 33 c2 26 -3 35 -17 39 -11 3 -22 12 -24 22 -3 9 -4 -9 -4 -39z"/>
<path d="M318 368 c-9 -26 7 -73 26 -76 18 -4 19 -3 3 13 -22 21 -22 45 1 46
13 0 14 2 2 6 -8 3 -18 10 -21 15 -3 5 -8 4 -11 -4z"/>
<path d="M454 366 c-3 -8 -4 -27 -2 -43 2 -22 9 -29 28 -30 l25 -3 -23 10
c-18 8 -23 16 -20 37 2 20 8 28 21 27 9 -1 17 2 17 7 0 15 -40 10 -46 -5z"/>
<path d="M668 367 c-9 -26 7 -72 26 -75 18 -4 19 -3 3 13 -21 20 -21 32 -2 42
12 7 12 10 -4 20 -15 9 -20 9 -23 0z"/>
<path d="M1166 372 c-7 -11 4 -52 13 -52 4 0 8 14 8 30 0 29 -10 39 -21 22z"/>
<path d="M1222 363 c-13 -27 1 -68 23 -68 12 0 21 9 25 25 8 30 -5 60 -25 60
-8 0 -18 -8 -23 -17z m36 -34 c-5 -35 -28 -36 -28 -1 0 16 3 32 7 35 11 12 25
-9 21 -34z"/>
<path d="M1300 361 c0 -10 7 -21 15 -25 23 -8 18 -34 -7 -39 -20 -5 -20 -5 2
-4 29 2 42 43 16 53 -21 8 -20 21 2 27 13 4 11 5 -5 6 -16 1 -23 -5 -23 -18z"/>
<path d="M1360 370 c0 -6 5 -8 10 -5 6 3 15 3 22 -1 7 -5 5 -11 -7 -21 -17
-12 -17 -13 -2 -13 24 0 21 -19 -5 -30 -23 -10 -23 -10 2 -7 22 2 25 7 25 42
0 34 -3 40 -22 43 -13 2 -23 -2 -23 -8z"/>
<path d="M1656 358 c-20 -28 -20 -48 -1 -48 8 0 15 -5 15 -11 0 -5 5 -7 10 -4
17 10 11 25 -10 25 -13 0 -18 5 -14 15 4 8 12 15 18 15 7 0 13 7 13 15 0 22
-13 18 -31 -7z"/>
<path d="M1727 373 c21 -4 21 -6 7 -40 -8 -19 -13 -38 -10 -41 3 -2 8 4 12 14
3 10 10 29 15 42 13 32 12 32 -18 31 -23 -1 -24 -3 -6 -6z"/>
<path d="M1785 368 c-2 -7 -3 -26 -2 -43 2 -23 7 -31 24 -33 20 -3 22 1 21 42
0 38 -4 46 -20 46 -10 0 -20 -6 -23 -12z m26 -11 c-1 -12 -15 -9 -19 4 -3 6 1
10 8 8 6 -3 11 -8 11 -12z m7 -45 c2 -7 -3 -12 -12 -12 -9 0 -16 7 -16 16 0
17 22 14 28 -4z"/>
<path d="M1854 367 c-3 -9 -4 -28 -2 -44 2 -20 8 -28 23 -28 17 0 20 7 20 40
0 30 -4 41 -18 43 -9 2 -20 -3 -23 -11z m34 -38 c-1 -13 -7 -23 -13 -22 -13 3
-18 30 -11 50 10 24 29 1 24 -28z"/>
<path d="M2203 335 c0 -27 2 -40 4 -27 5 27 33 29 33 2 0 -11 3 -20 8 -20 4 0
5 21 3 48 -3 26 -7 37 -9 25 -2 -13 -10 -23 -17 -23 -7 0 -16 10 -18 23 -2 12
-4 0 -4 -28z"/>
<path d="M397 363 c-13 -12 -7 -71 8 -83 9 -7 18 -10 22 -7 3 4 -2 9 -11 13
-19 7 -22 54 -4 72 7 7 8 12 2 12 -6 0 -14 -3 -17 -7z"/>
<path d="M888 358 c16 -16 15 -50 0 -67 -11 -11 -10 -13 2 -9 8 3 17 13 18 22
5 26 -7 66 -20 66 -9 0 -9 -3 0 -12z"/>
<path d="M171 342 c-12 -22 3 -52 27 -53 11 -1 8 -4 -8 -10 l-25 -8 25 2 c22
2 25 7 28 45 3 37 1 42 -17 42 -11 0 -25 -8 -30 -18z m39 -17 c0 -26 -14 -33
-25 -15 -9 14 1 40 15 40 5 0 10 -11 10 -25z"/>
<path d="M524 346 c-11 -28 1 -51 26 -53 l25 -3 -25 12 c-25 11 -25 11 -2 15
29 6 31 43 2 43 -11 0 -23 -6 -26 -14z m36 -6 c0 -5 -7 -10 -15 -10 -8 0 -15
5 -15 10 0 6 7 10 15 10 8 0 15 -4 15 -10z"/>
<path d="M592 323 c1 -37 1 -37 5 -5 3 18 10 32 18 32 8 0 16 -14 18 -32 l5
-33 -2 35 c-1 28 -5 36 -23 38 -21 3 -23 -1 -21 -35z"/>
<path d="M734 346 c-11 -28 0 -51 26 -53 22 -1 22 -1 3 4 -29 6 -30 23 -2 23
14 0 19 5 17 17 -4 23 -36 29 -44 9z m36 -6 c0 -5 -7 -10 -15 -10 -8 0 -15 5
-15 10 0 6 7 10 15 10 8 0 15 -4 15 -10z"/>
<path d="M805 350 c-7 -12 2 -12 30 0 19 8 19 9 -2 9 -12 1 -25 -3 -28 -9z"/>
<path d="M1509 343 c7 -14 8 -24 1 -28 -5 -3 -10 -11 -10 -18 0 -8 3 -8 12 1
8 8 15 9 25 1 9 -8 13 -8 13 -1 0 6 -5 14 -10 17 -7 4 -6 14 2 28 10 19 9 20
-4 10 -11 -10 -17 -10 -27 0 -11 10 -11 8 -2 -10z"/>
<path d="M1994 346 c-10 -26 0 -51 21 -51 16 0 20 7 20 30 0 33 -30 49 -41 21z
m34 -18 c-5 -32 -28 -35 -28 -4 0 17 5 26 16 26 10 0 14 -7 12 -22z"/>
<path d="M2069 358 c-7 -17 -5 -59 3 -64 7 -5 9 2 6 20 -4 22 -1 29 16 36 21
9 21 9 -1 9 -13 1 -24 0 -24 -1z"/>
<path d="M2273 351 c10 -4 18 -10 18 -14 -4 -34 1 -47 17 -46 10 0 12 3 5 6
-7 2 -13 18 -13 34 0 24 -4 29 -22 28 -20 0 -21 -1 -5 -8z"/>
<path d="M2347 353 c-4 -3 -7 -17 -7 -31 0 -16 7 -26 23 -30 22 -6 22 -6 -3
-13 l-25 -8 25 2 c22 2 25 7 28 45 3 36 0 42 -16 42 -10 0 -22 -3 -25 -7z m33
-29 c0 -31 -23 -28 -28 4 -2 15 2 22 12 22 11 0 16 -9 16 -26z"/>
<path d="M2484 346 c-11 -28 1 -51 26 -53 l25 -3 -25 12 c-25 11 -25 11 -2 15
29 6 31 43 2 43 -11 0 -23 -6 -26 -14z m36 -6 c0 -5 -7 -10 -15 -10 -8 0 -15
5 -15 10 0 6 7 10 15 10 8 0 15 -4 15 -10z"/>
<path d="M2559 348 c-1 -7 -3 -23 -4 -35 -1 -13 2 -23 6 -23 5 0 9 13 9 29 0
20 6 31 18 34 13 4 11 5 -5 6 -13 0 -24 -5 -24 -11z"/>
<path d="M800 308 c0 -19 2 -20 10 -8 13 19 13 30 0 30 -5 0 -10 -10 -10 -22z"/>
<path d="M1160 300 c-12 -8 -9 -10 13 -10 16 0 26 4 22 10 -8 12 -16 12 -35 0z"/>
<path d="M173 200 c0 -31 2 -41 4 -22 3 18 10 32 18 32 8 0 15 -14 18 -32 l4
-33 1 33 c2 26 -3 35 -17 39 -11 3 -22 12 -24 22 -3 9 -4 -9 -4 -39z"/>
<path d="M2273 200 c0 -33 2 -42 4 -22 5 40 25 38 34 -4 l7 -29 1 33 c1 26 -4
35 -18 39 -11 3 -22 12 -24 22 -3 9 -4 -9 -4 -39z"/>
<path d="M248 228 c-9 -28 7 -73 27 -75 15 -2 16 -1 5 5 -22 11 -24 52 -2 53
14 0 14 2 2 6 -8 3 -18 10 -21 15 -3 5 -8 4 -11 -4z"/>
<path d="M332 228 c-17 -17 -15 -73 3 -88 9 -8 15 -9 15 -2 0 6 -4 14 -10 17
-14 9 -12 62 3 68 6 2 9 7 6 10 -3 4 -11 1 -17 -5z"/>
<path d="M384 226 c-3 -8 -4 -27 -2 -43 2 -22 9 -29 28 -30 25 -3 25 -3 3 7
-15 6 -23 18 -23 35 0 17 7 29 23 35 l22 9 -23 0 c-12 1 -25 -5 -28 -13z"/>
<path d="M1082 195 c-1 -42 1 -46 21 -43 18 3 22 9 22 43 0 33 -4 41 -21 43
-19 3 -22 -2 -22 -43z m36 24 c-2 -6 -8 -10 -13 -10 -5 0 -11 4 -13 10 -2 6 4
11 13 11 9 0 15 -5 13 -11z m2 -44 c0 -8 -7 -15 -15 -15 -8 0 -15 7 -15 15 0
8 7 15 15 15 8 0 15 -7 15 -15z"/>
<path d="M1163 233 c19 -5 19 -21 0 -69 -4 -12 -3 -15 5 -10 7 4 12 15 12 24
0 10 7 28 16 40 15 21 14 22 -18 21 -18 -1 -25 -3 -15 -6z"/>
<path d="M1229 238 c-1 -2 -3 -22 -5 -46 -3 -40 -2 -43 19 -40 19 3 22 9 22
43 0 30 -4 41 -17 43 -10 2 -18 2 -19 0z m29 -19 c-2 -6 -8 -10 -13 -10 -5 0
-11 4 -13 10 -2 6 4 11 13 11 9 0 15 -5 13 -11z m2 -44 c0 -8 -7 -15 -15 -15
-8 0 -15 7 -15 15 0 8 7 15 15 15 8 0 15 -7 15 -15z"/>
<path d="M1516 215 c-20 -30 -20 -45 -2 -45 8 0 16 -5 18 -12 3 -7 7 -6 11 5
5 12 1 17 -13 17 -21 0 -27 15 -10 25 6 3 10 1 10 -5 0 -6 5 -8 10 -5 12 8 13
45 1 45 -5 0 -16 -11 -25 -25z"/>
<path d="M1576 228 c-3 -7 -4 -26 -3 -43 2 -23 7 -30 22 -30 17 0 20 7 20 40
0 30 -4 41 -18 43 -9 2 -19 -2 -21 -10z m34 -6 c0 -13 -12 -22 -22 -16 -10 6
-1 24 13 24 5 0 9 -4 9 -8z m-2 -44 c-6 -18 -28 -21 -28 -4 0 9 7 16 16 16 9
0 14 -5 12 -12z"/>
<path d="M1644 227 c-3 -9 -4 -28 -2 -44 2 -20 8 -28 23 -28 17 0 20 7 20 40
0 30 -4 41 -18 43 -9 2 -20 -3 -23 -11z m36 -32 c0 -24 -5 -35 -15 -35 -10 0
-15 11 -15 35 0 24 5 35 15 35 10 0 15 -11 15 -35z"/>
<path d="M1710 231 c0 -6 7 -8 15 -5 9 4 15 0 15 -9 0 -8 -6 -18 -12 -20 -8
-3 -6 -6 5 -6 24 -1 22 -29 -3 -34 -17 -4 -16 -4 2 -3 20 1 23 6 22 41 0 33
-4 41 -22 43 -12 2 -22 -1 -22 -7z"/>
<path d="M2100 222 c0 -26 -27 -30 -33 -4 -3 9 -5 -3 -4 -28 0 -25 2 -35 4
-22 5 27 33 29 33 2 0 -11 4 -20 9 -20 4 0 7 18 5 41 -3 43 -14 67 -14 31z"/>
<path d="M599 225 c-3 -2 -3 -20 -1 -40 3 -28 8 -35 26 -34 16 1 17 2 4 6 -24
6 -24 53 0 53 14 0 15 2 2 10 -17 11 -24 12 -31 5z"/>
<path d="M820 223 c14 -7 13 -56 -2 -72 -11 -11 -10 -13 2 -9 19 6 21 80 2 84
-7 1 -8 0 -2 -3z"/>
<path d="M454 206 c-11 -28 0 -51 26 -53 l25 -3 -25 12 -25 11 23 5 c15 2 22
9 20 20 -4 22 -36 28 -44 8z m31 -6 c3 -5 -1 -10 -10 -10 -9 0 -13 5 -10 10 3
6 8 10 10 10 2 0 7 -4 10 -10z"/>
<path d="M522 183 c1 -37 1 -37 5 -5 3 18 10 32 18 32 8 0 16 -14 18 -32 l5
-33 -2 35 c-1 28 -5 36 -23 38 -21 3 -23 -1 -21 -35z"/>
<path d="M664 206 c-11 -28 0 -51 26 -53 l25 -3 -25 12 -25 11 23 5 c15 2 22
9 20 20 -4 22 -36 28 -44 8z m31 -6 c3 -5 -1 -10 -10 -10 -9 0 -13 5 -10 10 3
6 8 10 10 10 2 0 7 -4 10 -10z"/>
<path d="M739 218 c-7 -24 -7 -58 1 -63 6 -4 10 6 10 24 0 20 6 31 18 34 13 4
11 5 -5 6 -13 0 -23 0 -24 -1z"/>
<path d="M1369 203 c7 -14 8 -24 1 -28 -5 -3 -10 -11 -10 -18 0 -8 3 -8 12 1
8 8 15 9 25 1 9 -8 13 -8 13 -1 0 6 -5 14 -10 17 -7 4 -6 14 2 28 10 19 9 20
-4 10 -11 -10 -17 -10 -27 0 -11 10 -11 8 -2 -10z"/>
<path d="M1853 208 c-16 -19 3 -60 24 -56 24 4 25 61 2 66 -9 1 -21 -3 -26
-10z m33 -34 c-5 -13 -10 -14 -18 -6 -6 6 -8 18 -4 28 5 13 10 14 18 6 6 -6 8
-18 4 -28z"/>
<path d="M1929 218 c-8 -31 -7 -68 2 -62 6 3 9 17 6 30 -3 17 1 24 17 27 20 4
20 4 -1 6 -13 0 -23 0 -24 -1z"/>
<path d="M2135 212 c6 -4 11 -15 12 -24 1 -35 3 -38 21 -37 10 0 12 3 5 6 -7
2 -13 18 -13 34 0 21 -5 29 -17 29 -11 0 -14 -3 -8 -8z"/>
<path d="M2197 201 c-6 -24 10 -51 31 -52 11 -1 8 -4 -8 -10 l-25 -8 25 2 c22
2 25 7 28 45 3 39 1 42 -21 42 -16 0 -26 -7 -30 -19z m43 -16 c0 -26 -14 -33
-25 -15 -9 14 1 40 15 40 5 0 10 -11 10 -25z"/>
<path d="M2344 206 c-11 -28 1 -51 26 -53 22 -1 22 -1 3 4 -28 6 -30 23 -3 23
13 0 20 7 20 20 0 24 -37 28 -46 6z m36 -6 c0 -5 -7 -10 -16 -10 -8 0 -12 5
-9 10 3 6 10 10 16 10 5 0 9 -4 9 -10z"/>
<path d="M2414 194 c-4 -14 -2 -30 5 -37 8 -8 11 -3 11 20 0 22 6 33 18 36 13
4 12 5 -5 6 -16 1 -24 -6 -29 -25z"/>
<path d="M258 96 c-10 -9 -12 -27 -9 -52 l6 -39 3 33 c2 22 9 32 20 33 14 0
13 2 -3 8 -19 8 -19 8 0 19 11 6 15 12 8 12 -6 0 -18 -6 -25 -14z"/>
<path d="M2413 60 c0 -33 2 -42 4 -22 5 40 25 38 34 -4 l7 -29 1 33 c1 26 -4
35 -18 39 -11 3 -22 12 -24 22 -3 9 -4 -9 -4 -39z"/>
<path d="M318 88 c-9 -26 7 -73 25 -74 12 -1 13 -1 2 3 -22 7 -20 53 3 54 13
0 14 2 2 6 -8 3 -18 10 -21 15 -3 5 -8 4 -11 -4z"/>
<path d="M401 82 c-14 -26 -14 -69 -1 -77 6 -4 7 6 4 24 -4 19 -1 37 6 46 7 9
10 18 7 21 -3 3 -10 -3 -16 -14z"/>
<path d="M454 76 c-10 -39 -1 -61 26 -64 19 -2 22 -1 10 7 -8 5 -18 7 -22 5
-4 -3 -8 8 -8 24 0 20 7 32 23 40 l22 11 -22 0 c-16 1 -24 -6 -29 -23z"/>
<path d="M668 88 c-9 -24 12 -78 30 -78 11 0 13 3 6 8 -6 4 -14 17 -18 29 -5
16 -2 23 11 26 17 4 17 5 0 6 -10 0 -15 6 -12 11 3 6 2 10 -3 10 -6 0 -12 -6
-14 -12z"/>
<path d="M880 93 c0 -7 5 -15 11 -19 7 -4 9 -21 5 -42 -4 -25 -2 -32 6 -24 16
16 13 62 -6 80 -9 10 -16 12 -16 5z"/>
<path d="M1169 94 c-7 -58 -3 -84 14 -84 12 0 16 4 10 13 -4 6 -8 24 -8 39 -1
25 -14 52 -16 32z"/>
<path d="M1237 93 c22 -4 22 -6 7 -34 -8 -17 -13 -36 -11 -42 4 -11 16 11 31
61 7 19 4 22 -21 21 -23 -1 -24 -2 -6 -6z"/>
<path d="M1307 93 c21 -4 21 -6 7 -40 -8 -19 -13 -38 -10 -41 3 -2 8 4 11 14
4 10 11 27 16 36 15 29 10 38 -18 37 -23 -1 -24 -3 -6 -6z"/>
<path d="M1367 94 c-8 -8 3 -34 14 -34 4 0 6 6 3 14 -3 8 2 16 13 19 15 4 15
5 -3 6 -11 0 -23 -2 -27 -5z"/>
<path d="M1660 90 c12 -8 12 -13 -3 -44 l-17 -36 28 1 c17 1 20 3 10 6 -22 5
-22 8 -2 38 17 27 12 45 -14 45 -14 0 -15 -2 -2 -10z"/>
<path d="M1727 94 c-3 -4 -3 -20 0 -36 4 -20 1 -33 -8 -39 -10 -6 -5 -9 16 -8
17 0 25 2 20 5 -6 2 -10 20 -9 39 2 34 -7 51 -19 39z"/>
<path d="M1790 68 c-20 -33 -20 -33 0 -36 11 -2 20 -8 20 -13 0 -5 5 -9 11 -9
5 0 8 4 5 9 -4 5 0 12 6 14 8 3 9 6 2 6 -6 1 -9 12 -7 25 8 38 -15 40 -37 4z
m24 -13 c-6 -16 -24 -21 -24 -7 0 11 11 22 21 22 5 0 6 -7 3 -15z"/>
<path d="M1854 87 c-3 -9 -4 -28 -2 -44 2 -20 8 -28 23 -28 17 0 20 7 20 40 0
30 -4 41 -18 43 -9 2 -20 -3 -23 -11z m36 -38 c0 -19 -5 -29 -15 -29 -15 0
-22 50 -9 63 12 12 24 -4 24 -34z"/>
<path d="M2201 100 c-8 -17 -7 -81 0 -86 5 -3 9 4 9 15 0 28 28 27 33 -1 2
-13 4 0 4 27 0 28 -2 40 -4 28 -2 -13 -11 -23 -18 -23 -7 0 -16 10 -18 23 -2
12 -5 20 -6 17z"/>
<path d="M171 62 c-14 -26 8 -56 35 -49 17 4 16 5 -3 6 -29 1 -30 21 -2 21 14
0 19 5 17 17 -5 25 -35 28 -47 5z m39 -2 c0 -5 -7 -10 -15 -10 -8 0 -15 5 -15
10 0 6 7 10 15 10 8 0 15 -4 15 -10z"/>
<path d="M520 61 c0 -16 6 -21 26 -21 33 0 30 33 -4 38 -17 3 -22 -2 -22 -17z
m40 -1 c0 -5 -7 -10 -16 -10 -8 0 -12 5 -9 10 3 6 10 10 16 10 5 0 9 -4 9 -10z"/>
<path d="M592 43 c1 -38 1 -38 5 -5 5 40 25 38 35 -4 6 -27 6 -27 5 6 -2 28
-6 36 -24 38 -21 3 -23 -1 -21 -35z"/>
<path d="M734 66 c-11 -28 0 -51 26 -53 l25 -3 -25 12 -25 11 23 5 c15 2 22 9
20 20 -4 22 -36 28 -44 8z m36 -6 c0 -5 -7 -10 -15 -10 -8 0 -15 5 -15 10 0 6
7 10 15 10 8 0 15 -4 15 -10z"/>
<path d="M806 64 c-9 -24 -7 -44 4 -44 6 0 10 11 10 24 0 15 7 26 18 29 13 4
12 5 -4 6 -12 0 -25 -6 -28 -15z"/>
<path d="M1500 75 c1 -6 11 -22 23 -38 l23 -27 0 34 c0 25 -3 32 -11 26 -7 -6
-16 -5 -23 2 -7 7 -12 8 -12 3z"/>
<path d="M1994 66 c-10 -26 0 -51 21 -51 16 0 20 7 20 30 0 33 -30 49 -41 21z
m36 -22 c0 -31 -23 -28 -28 4 -2 15 2 22 12 22 11 0 16 -9 16 -26z"/>
<path d="M2069 68 c0 -7 -2 -21 -4 -30 -2 -10 1 -18 6 -18 5 0 9 11 9 24 0 15
7 26 18 29 13 4 11 5 -5 6 -13 0 -23 -5 -24 -11z"/>
<path d="M2273 73 c11 -3 17 -14 17 -34 0 -21 5 -29 18 -28 10 0 12 3 5 6 -7
2 -13 18 -13 34 0 24 -4 29 -22 28 -17 -1 -19 -2 -5 -6z"/>
<path d="M2340 50 c0 -19 7 -33 19 -40 29 -15 31 -13 31 30 0 36 -2 40 -25 40
-21 0 -25 -5 -25 -30z m38 -2 c-2 -13 -7 -23 -13 -23 -5 0 -11 10 -13 23 -2
15 2 22 13 22 11 0 15 -7 13 -22z"/>
<path d="M2484 66 c-11 -28 0 -51 26 -53 l25 -3 -25 12 -25 11 23 5 c15 2 22
9 20 20 -4 22 -36 28 -44 8z m36 -6 c0 -5 -7 -10 -15 -10 -8 0 -15 5 -15 10 0
6 7 10 15 10 8 0 15 -4 15 -10z"/>
<path d="M2557 73 c-11 -11 -8 -65 3 -58 6 3 10 17 10 30 0 14 7 25 18 28 14
4 13 5 -4 6 -11 0 -24 -2 -27 -6z"/>
<path d="M1401 48 c-1 -19 -7 -28 -23 -31 l-23 -4 23 -2 c25 -1 36 17 29 46
-3 12 -5 9 -6 -9z"/>
<path d="M1507 33 c-4 -3 -7 -11 -7 -17 0 -6 5 -5 12 2 6 6 9 14 7 17 -3 3 -9
2 -12 -2z"/>
<path d="M525 20 c3 -5 16 -10 28 -9 21 0 21 1 2 9 -28 12 -37 12 -30 0z"/>
</g>
</svg>
